<svg xmlns="http://www.w3.org/2000/svg" width="260" height="260"><path d="M226.67 159.162c.848 1.979 1.463 3.272.753-.017-1.426-1.484-1.45-2.62-1.354-3.605-3.505-3.844.386 2.333.6 3.622zM99.787 6.723c4.143-.755 4.084-1.402 5.72-2.065-.992.12-1.984.25-2.974.388-.914.141-1.74.284-1.45.42 5.268-.418-4.181 1-1.296 1.257zm118.01 138.65c-2.925-3.54-3.774-5.204-7.283-8.23-.707.233 2.34 2.697 1.646 2.912 3.125 2.258 5.14 5.47 5.638 5.317zM96.02 144.316c-1.243-.738.338-1.021-3.998-2.288.925 1.809-7.788-2.504-4.674-.187 2.2.042 7.012 2.514 8.672 2.475zm4.73-.44a32.607 32.607 0 0 1-.862-.204c-2.568-.703-2.539-1.064-6.217-2.014 2.61 1.955 4.626 3.397 5.852 3.413.606-.007 1.019-.365 1.227-1.195zM61.828 17.206a39.277 39.277 0 0 1-2.493 1.433c-2.532 1.358-4.619 2.276-5.627 3.582 1.84-1.284 4.017-2.035 5.884-3.18.816-.498 1.573-1.079 2.236-1.835zM31.544 84.928c.075 1.96-.331.662-.781-1.058-.45-1.72-.88-3.861-1.184-3.488.287 2.271.852 8.222 1.246 7.876-.42-2.56.24.078.884 3.097.663 1.03.696-.252.55-1.935-.145-1.683-.421-3.786-.715-4.492zm86.951 66.358c-2.56-1.264 1.741-1.069-.926-2.564-4.494-.909-5.49-1.555-8.423-2.375 1.046.934-2.383.1-3.096.336 8.959 2.026 3.392 2.693 9.495 4.368-1.17-1.081 4.7.845 2.95.235zM43.431 32.31c.096-.372-.302-.311.717-1.505a55.297 55.297 0 0 0 4.442-4.686c-.021-.529-1.643.969-1.747.542 3.05-3.585 6.532-6.146 10.945-9.923-5.184 3.378-10.375 8.68-13.982 11.608.651.33-.741 3.4-.375 3.964zm134.043 85.188c1.683.343 3.92 1.213 6.194 2.142 2.391.93 4.817 1.94 6.781 2.423-.956-.616-3.797-1.815-6.647-2.792-4.023-1.451-8.036-2.51-6.328-1.773zM109.882 45.88c-1.81.765 3.41.088-1.024 1.44 3.105-.57 4.805-.988 4.901-1.535-2.521.34-2.566.025-3.877.095zm-17.347 5.364c-2.523 1.184-3.472 2.18-4.131 3.038-.442.582-.744 1.112-1.16 1.723.603-.39 1.143-.745 1.635-1.082 1.87-1.282 3.206-2.284 5.115-3.205-2.156.998-.778-.466-1.459-.474zm17.702-3.092c3.816-.542 10.65-.29 12.795-.692-3.396-.056-9.473-.407-12.795.692zm-8.063 45.818c1.618.431 6.957.967 1.675-.949 3.517 2.028-4.558-.605-1.675.949zm32.375 51.992c-4.237-1.32 3.707.29 3.052-.362 3.877.754-1.23.722 2.635 1.48-1.007.127-3.276-.636-2.777-.868-1.272-.201-2.56-.41-2.91-.25zm-18.38-3.994c-2.968-.587-3.695-1-5.58-1.514 1.301-.007 2.252-.141 5.772.7zm-26.691-6.466c2.108-.466 3.636.469 5.81.749 1.793.822 2.602 1.436 4.137 1.207 1.864.59 1.023.83 1.174 1.194-4.457-1.27-6.01-1.279-11.121-3.15zm9.287 4.378c-2.748-1.16-.18-.783-5.45-2.048.276-.432 4.11.815 7.63 1.781.288.073.574.145.855.214.651.453-.04.358-.955.171-1.273-.287-2.978-.78-2.08-.118zm87.801-12.397c-1.962-.307-3.405-.895-5.153-1.654-1.54-.697-3.315-1.537-5.888-2.363 1.448.069 3.757.833 6.09 1.808 1.745.697 3.501 1.515 4.951 2.209zM101.391 7.536c1.335-.034 3.321-.25 5.864-.556-1.243.45-2.11.88-5.741 1.384zm29.314-1.939c-19.913-1.589-6.315 5.887 0 0zM54.462 25.646c.339-.05-.333.527-1.029 1.148-1.505 1.393-.588 1.22-.567 1.626-1.752 1.351-3.625 3.128-3.818 2.571 3.081-2.997 2.53-3.067 5.414-5.345zm34.024-14.988c-1.884.601-2.545 1.117-2.641 1.548-6.23 1.565-12.335 3.99-12.984 3.175 3.505-1.15 3.806-2.339 1.14-1.158 4.545-2.484 6.163-1.266 3.158-.11 2.65-.262 3.48-1.92 8.41-2.918-.602.296 2.033-.455 3.878-.911 1.845-.456 2.87-.74-.961.374zM73.114 133.09c-4.722-1.974-3.35-3.204 1.774-.327-2.164-.451-2.983-.973-1.774.327zm-4.89-116.955c1.456-.567 1.594-.29 4.308-1.523.153.676-1.349 1.72-4.884 3.684 2.241-1.845 2.427-2.101.575-2.16zm.276.562c-2.574 1.812-4.678 2.842-7.54 4.485-.074.042-.15.085-.224.129l.198-.17c1.654-1.386 5.41-3.75 7.566-4.444zm78.937 137.68c-3.457-.797-6.775-1.578-8.39-2.205 1.405-.177 8.156 1.434 8.39 2.204zm.562-41.198c-.614.918-6.235-.992-10.242-1.808-1.034-.205-1.96-.34-2.661-.34-1.928-1.237-.172-.965 2.8-.27 2.979.714 7.166 1.88 10.103 2.418zm-10.786 40.495c-6.18-1.763 1.402-.377 1.692-.891 4.023 1.246-.638.912-1.692.891zM82.952 88.936c1.044 1.25 1.15 1.477 1.024 1.604-.125.126-.453.13-.028.877-1.005-1.017-2.364-2.238-4.184-4.263-.015-.702 1.375 1.003 2.761 2.238-.862-1.154-.11-.542.426-.456zm44.078-45.76c-3.215.106-5.273.094-6.859 0-.203.255.335.352 1.391.354-.694.164-4.229.465-7.407.807-3.178.341-6.019.733-5.758.307 1.785-.331 3.63-.583 3.883-.37 2.266-.336 2.942-.686 2.524-1.125 3.42.243 12.327-.616 12.226.026zm25.175 64.775c1.5.076 6.142 1.33 9.54 2.528.112.036.222.073.331.11-.104-.002-.222-.008-.352-.019-1.767-.164-5.896-1.277-8.246-1.664.204-.258.353-.526-1.274-.956zM82.629 80.173c-.758-.916-2.083-2.367-1.897-4.712.559 1.19 1.058 2.934 1.897 4.712zm28.943 44.386c17.292-9.657-104.822-62.782-15.149-86.094 7.343-2.993 32.61-2.399 32.61-2.399s48.522-28.546-.348-31.086c-1.293-.104-2.51-.211-3.623-.33 1.167-.03 2.604-.006 3.623-.026.709-.032 1.232-.08 1.342-.18-.448-.011-.895-.02-1.342-.025-5.015-.203-10.476-.111-15.139.072-4.662.184-8.508.434-10.12.088-5.867 1.106-8.585 2.174-11.084 2.956-1.266.365-2.5.691-4.206 1.081 1.93-.47 3.338-.654 4.312-.677 1.389-.084 1.947.15 1.807.623l-1.519.472c-4.57 1.316-7.076 2.159-9.166 2.716-2.089.557-3.797.866-7.192 2.299-2.967 1.253-7.882 3.856-12.558 7.046-4.793 3.434-8.725 7.691-10.241 9.331-4.403 4.754-7.339 7.907-10.83 14.406-2.01 4.138-4.152 9.673-4.93 17.937a61.365 61.365 0 0 1 3.997-12.557c-2.644 7.283-4.125 14.731-4.382 22.088-.904 11.392 2.287 24.589 10.836 37.905 7.551 9.642 16.305 16.737 25.189 21.162-8.408-4.662-17.214-11.86-24.728-21.521C39.939 96.088 37.176 82.788 38.149 72.3a61.953 61.953 0 0 1 4.078-19.188c-1.817 6.135-2.471 12.013-2.404 14.906.562.293 1.014-2.475 1.783-5.715.769-3.24 1.936-6.956 2.826-8.545-2.217 8.38-2.53 13.867-2.641 18.542-.23 3.535-.125 6.786.484 10.497.61 3.711 1.691 7.909 4.303 13.317-.837-.428 1.103 4.773 5.431 11.182 2.686 3.267 5.946 6.541 8.691 9.007 12.927 9.622 29.04 14.607 43.803 16.938 9.32 1.468 16.208 4.502 26.87 6.147l.227.023c33.209 8.222 29.083 6.352-.136-.425-18.623-3.553-15.818-4.51-1.072-.922.316-.162.773-.26 1.352-.306 25.583-.872 68.864 17.248 83 10.474 3.28.153-4.955-4.37-6.783-5.391-7.738-7.147-17.386-11.29-26.914-16.006a22.51 22.51 0 0 1-.417-.258c.137-.01.303-.003.503.022.737.082 1.933.4 3.771 1.124.807 1.541 7.452 3.403 9.387 4.109 2.29 1.437 4.228 2.86 5.806 4.196l.176.148c.79.225.486-.135.041-.534-.635-.58-1.553-1.241.17-.301l.201.108c.874.552 1.32 1.59 1.98 2.386 2.143 1.795 3.11 1.962 5.948 4.187.67-.406-3.562-3.469-4.035-4.456 3.68 2.336 3.963 3.83 5.972 4.415-2.538-2.442-5.981-5.245-9.692-7.305a41.338 41.338 0 0 0-3.743-1.887c-3.751-3.301-11.56-6.395-15.076-8.677a11.058 11.058 0 0 1-.413-.29l.469.136c6.736 1.89 14.559 5.49 20.124 8.301 3.475 1.723 6.088 3.215 7.4 3.438-2.608-1.95-5.21-2.969-7.181-3.825-1.007-.444-1.847-.86-2.46-1.358.184-.143 1.487.533 2.602 1.104.98.492 1.818.915 1.74.612a33.225 33.225 0 0 1-1.63-.808c-4.33-2.303-11.832-6.583-13.457-6.467 3.39 1.587 4.09 1.821 6.62 3.68-6.016-2.883-9.62-4.036-13.543-5.267a303.965 303.965 0 0 0-10.39-3.235c2.125-.302-6.719-2.156-5.404-2.62 6.83 1.94 11.334 2.89 16.195 4.755 1.215.445 2.45.953 3.734 1.564 3.328.414 16.853 6.512 16.853 6.512 3.018 1.482 5.645 2.99 7.426 3.828-1.247-1.096-3.836-2.885-7.003-4.58-4.601-2.514-10.373-4.96-14.004-6.371-3.631-1.412-5.076-2.034-1.014-.97-2.243-.963-3.884-1.518-5.282-1.932-1.737-.542-3.096-.86-4.85-1.352-1.228-.796-4.887-2.299-7.24-3.378-2.354-1.078-3.382-1.853.78-1.297-6.674-1.909-4.962-2.616-5.508-3.03-1.808.167-4.745-1.429-4.28-1.691l-.34-.076c-9.39-2.248-12.255-2.058-18.093-4.385.66 1.028 4.018 2.293 8.124 3.654-1.416-.344-1.726-.243-2.873-.476-3.88-1.5-6.89-2.239-10.034-2.84-3.516-.653-7.2-1.148-12.48-2.4.577.896-1.427.774-4.467.22.05-.204-1.07-.514-1.306-.747 1.096.217 2.758.663 2.85.474-7.339-1.491-6.216-1.909-6.813-2.311a10.563 10.563 0 0 1-3.915-.861c-1.192-.525-2.031-1.172-2.65-1.481-2.354-.025-6.267-2.115-7.391-2.762-2.104-.137-4.747-.612-7.26-2.498.505.929-.642.823-2.53.067-2.117-.847-5.134-2.68-7.311-4.644-2.178-1.964-3.476-4.01-3.663-4.67a.714.714 0 0 1-.004-.02l.014.013c3.25 3.622 6.014 6.348 7.957 7.035-1.294-.788-.933-1.245.33-.534.408.53 1.494 1.304 3.019 2.138.279.15.57.3.873.452-.46-1.383 1.28-1.662 1.184-2.448a22.284 22.284 0 0 1-.917-.285c-1.834-.601-3.002-1.284-4.295-2.114a77.341 77.341 0 0 1-4.814-3.306c1.17-.498-1.028-1.247-1.688-2.221a.17.17 0 0 1-.009-.012c-.919-1.166-.88-1.973-.696-2.132.184-.16.613.161 1.076.398.463.236.962.372 1.209.245.247-.127.185-.376-.101-1.46-1.144-1.53-1.69-4.37-1.922-7.284-.027-1.863.159-3.626.54-5.186-.36 2.42-.78 3.562-1.159 3.456-.38-.107-.67-1.555.137-3.67l-.001.001c-.34.333-.478-.537-.634-1.235-.155-.698-.37-1.255-.995-.116.176.26-.066 1.564-.288 2.799-.221 1.234-.446 2.398-.636 2.137-.11-2.679-.092-3.286-.851-2.17.025-2.154.875-4.184-.278-2.188.36-1.87.868-3.477 1.48-4.898 1.267-3.193 3.54-5.707 6.78-8.192 3.091-2.355 7.527-4.375 14.873-6.387.75-.878-3.486.596-2.745-.3.842-.203 1.805-.446 2.766-.673 2.117-.507 4.227-.841 4.787-.592-2.162.408-3.137.853-3.592 1.238 3.761-1.242 9.32-1.642 14.009-1.727-3.526.463-2.32 1.07.092 1.253-.265-.176 2.313-.161 5.038.102 2.726.262 7.773-.42 7.895.011 13.517 3.817 12.328-38.956-1.574-40.954-1.399-.192-1.638-.51 0-1.026l.202-.063c11.786.945 19.185-2.827-.202-.48-1.12.13-2.311.255-4.245.31-.339-.388 1.667-.487 1.492-.86-1.774-.01-4.221.129-4.486-.105 3.098-.08 5.442-.129 7.24-.203 22.311-.302 17.015-4.85 0-1.119-1.693.362-3.413.733-5.754 1.066-2.61-.122-5.208-.186-4.532-.878-6.18.277-3.822 1.288-8.872 1.902 2.976-.287 5.955-.5 8.933-.645-.828.792 1.783.93 3.035 1.34-2.785.047-3.253.354-5.903.496-1.069-.286-1.83-1.73-4.537-.914 3.212.033-1.017.59 1.58.92-4.861.077-4.272.413-7.323 1.155 2.134-.144 7.582-1.002 7.374-.53-9.114 1.381-14.396 2.151-21.576 3.392-.591.102-1.194.21-1.813.325 1.459-.333 1.906-.06.094.408.06-.92-3.28.653-4.335 1.09-3.027.447-2.778.914-5.786 1.542.645-.995-.749-1.234-2.247-1.88 4.33-1.67 5.621-2.455 4.528-2.569-1.093-.113-4.602.517-9.479 2.668-.557.677 1.468-.147 3.585-.911s4.327-1.463 4.009-.966c-3.848 1.458-3.664 2.215-6.803 3.812-.388-.094-1.694.35-3.001.837.743.21-5.498 3.874-5.07 3.659-2.444 1.227-2.7 1.54-2.857 1.74-.157.2-.213.298-2.129 1.399 0 0-1.655.955-2.922 1.746l.609.852c-3.62 2.373-3.047 2.559-5.821 4.974-1.37.24-3.816 1.774-6.603 4.4.688-.282-3.052 5.034-3.699 5.097 1.514-2.597 2.635-4.326 3.85-5.992 1.215-1.666 2.532-3.276 4.759-5.359-2.136 1.437-6.243 6.284-8.37 10.016-1.065 1.867-1.708 3.396-1.749 3.886-.04.49.472-.08 2.026-2.192-.801 1.445-2.272 3.83-2.686 5.015-.171.5-.171.78.101.68l.268-.47c.875-1.502 1.992-3.283 2.308-3.36.663-.054.375.814-1.399 3.874l-.261.462c-.388-1.182-2.167 2.375-3.91 6.615.653-1.95.727-2.879 2.271-5.74-2.28 3.108-1.339.068-2.85 2.15-.893 3.052.604 1.085 1.338.585-2.18 4.914-3.344 9.459-3.996 8.488-.895 3.167-.511 2.708-.185 2.272.325-.436.589-.843.007 2.461-.51 2.154-.9 3.67-1.297 4.479.117-3.555-.172-5.072.087-7.923-.588 1.747-1.197 4.117-1.547 7.756-.09 2.407.198 1.35.463.242s.519-2.27.37-.147c-.226 2.666-.43 3.146-.67 3.691-.24.546-.52 1.164-.444 4.057.642-4.7.727-1.828.891 1.504.136 3.335.53 7.202.893 4.62-.365-1.911-.432-3.36-.409-4.62.025-2.446.349-4.207.205-7.63.275-.063.497-1.936.787-1.479-.27 3.785-.482 7.208-.403 9.109.033.94.134 1.51.342 1.561.164-.179.148-.816.12-1.561-.053-1.213-.129-2.725.333-2.977.04 1.103.128 2.04.23 2.977.138 1.34.297 2.688.47 4.528-.23 2.953-.74.508-1.254.07 1.297 4.989 1.065 9.903 2.726 13.46-.06.249.174 1.794.267 2.73.094.938-.043 1.283-.847-.95-.657-2.19-.356-4.973-1.162-4.525-.413-1.695.09 3.943-.036 4.888.642.232.857.176 1.993 2.912.518 1.213 1.231 2.987 2.47 5.512-.957-1.318-1.383-1.057-2.275-2.426 1.886 5.295 4.313 6.92 4.608 8.316.34 1.033-.76-.459-1.548-1.612s-1.351-1.916.01.7c.83.546 1.652 1.904 2.803 3.934 1.205 1.034-2.179-4.29.68-.484 1.207 1.713.529 1.398 1.567 2.794-1.563-3.242 2.362 2.247.817-.655.479.61.91 1.112 1.307 1.546a26.601 26.601 0 0 0 1.94 1.855c-1.688-.642 3.488 3.937 3.968 4.913-2.786-2.51-2.987-2.575-2.725-1.907.263.669 1.1 1.983.546 1.936 2.404 1.226 3.473 3.846 6.248 5.011 1.15-.455-3.758-2.998-4.615-4.409 3.166 2.455 3.468 2.405 3.04 1.84-.428-.565-1.49-1.766-.907-1.958 2.07 1.696 2.954 1.99 3.889 2.374.935.384 1.92.868 4.517 2.502.277.175.573.363.89.566-.482-.206-.818-.315-1.026-.341-.29-.04-.338.078-.186.308.232.36.952.995 1.982 1.693.46-.298 3.048 1.061 5.985 2.488 2.937 1.427 6.234 2.902 7.851 3.284-3.236-1.897-1.943-1.372-.621-.819 1.322.553 2.673 1.127-.318-.737 1.413.734 2.834 1.23 4.11 1.643 1.759.528 3.24.924 4.105 1.623-1.951-.34-6.195-1.455-3.224.159 5.966 2.376 4.084.448 4.734-.07 4.995 1.94 7.513 2.094 9.775 3.147-.432.184-2.42-.36-2.984-.248 6.652 2.076 3.52.566 5.84.855a8.28 8.28 0 0 1 1.778 1.306c.742.699 1.121 1.302 1.997 1.626.104-.105.26-.19 1.459.144.86.197 1.685.38 1.467.142-5.157-1.187-1.629-1.542-3.869-2.459 3.613.786 4.985.94 6.995 1.92-1.302-.252-3.966 0-1.617.473.577-.167 7.37 1.005 8.546 1.793-2.14.268-6.385.324-1.95 1.913 3.562-.016 2.115-.943 7.487.47.746.202 1.624.452 2.667.759.972-.242-.786-.712-2.572-1.182-1.28-.326-2.574-.657-2.903-.913.808-.211 3.013.104 3.187-.348a.18.18 0 0 0 .01-.045c.005-.055-.017-.12-.067-.195-2.221-.51-4.932-1.076-4.154-1.358 1.713.366 3.1.797 4.294 1.23 2.789 1.044 4.49 2.114 6.77 2.361-1.583-.688-3.968-1.44-4.011-1.999 4.759.88 4.566 1.352 4.058 1.795 7.027 1.55 2.58.02 1.644-.693 5.39.937 2.551 1.178 6.935 2.044 2.463.446.134-.989 3.058-.356 1.11.649 3.489 1.414 3.983 2.014-3.101-.598-4.346-1.636-4.268-.792 1.943 1.17 6.053.58 6.99 1.868-3.028-.146-5.22-1.208-3.058.349-3.25-.838-5.419-1.244-7.083-1.452.45-.028 3.693.038.189-.816-2.78.02-5.268.154-11.582-1.185.727 1.132-4.376.304-1.927 1.918 5.203 1.425 2.42-.254 7.185 1.016-.27.19-2.618-.122-.14.611 6.161 1.146 13.729 3.113 19.656 4.636.302-.07.181-.312 1.022-.17.13.023.284.054.466.098.338-.109.091-.273-.38-.456-1.187-.454-3.747-1.032-2.173-1.232.864.295 1.623.533 2.296.722 3.31.942 4.486.728 5.89.65 1.404-.079 3.07-.05 7.02 1.82-1.405-.25-7.498-1.554-4.295-.299.747-.16 1.384.52 2.57 1.04 1.258-.058 3.546.317 7.97 2.347 1.44 1.186-3.175-.264-.415.962 1.06.255 2.761.784 3.961 1.087 1.338.338 2.086.33.47-.886l-.027-.015c-3.77-2.12-3.146-1.135-5.182-1.875-.575-.71-2.98-1.811-2.126-2.191 2.972 1.188 4.899 1.959 5.36 1.763-2.494-1.624-3.705-1.56-7.873-3.119-1.9-.524-.456.663-2.939-.096-1.511-1.186-6.477-2.231-9.987-2.834l-.945-.164c.13-.264-.547-.604-1.261-.948.8.18 1.582.35 2.35.514 0 0 17.438 3.308 24.463 8.285 10.293 7.293 15.37 16.098 14.567 33.245-3.233 20.685-17.176 32.064-59.461 33.335-2.17.107-28.059 0-28.059 0v9.355h-9.235v4.17h3.817v7.297H90.26v2.914h-5.475v2.973h-8.592v4.442h27.762c17.43.294 60.236 1.417 82.426-8.933 19.535-8.145 30.595-18.899 37.307-32.199 5.551-11 6.56-18.87 6.99-28.71.391-8.965-.463-18.393-4.062-26.615-3.387-7.74-7.337-14.14-15.815-19.812-5.786-4.806-15.572-9.63-17.59-10.367l-7.17 4.02m-69.334-87.28c-5.193.625-7.194 1.133-11.733 2.088.508.18-.012.43-.743.717-.941.364-2.188.767-2.362 1.051a33.44 33.44 0 0 1 2.399-.912c4.015-1.376 8.913-1.835 12.439-2.945zm-21.29 32.393c.541.374.77.65.526.791.596.4 1.249.68 1.803.847 1.381.439 2.19.32 1.075-.256.145.272-.263.132-.862-.17-1.064-.557-2.696-1.756-2.542-1.212zm11.811-25.485c-.34.242-1.03.504-1.71.787-1.257.52-2.454 1.027-2.062 1.38a16.114 16.114 0 0 0 2.213-.805c1.686-.759 2.805-1.546 1.56-1.362zm-67.543 6.192a60.526 60.526 0 0 0-.733 9.282c-.286 6.599 1.337 14.178 3.54 19.136-2.394-6.88-3.27-13.56-3.15-19.136-.08-3.388.093-6.55.343-9.282zm193.001 126.53c.433-4.99-.063-7.256-.258-7.107-.196.15-.136 2.647.258 7.107zm-17.014-44.276c.637.65 1.225 1.266 1.767 1.843 2.23 2.381 3.669 4.099 4.598 4.817-1.382-1.98-2.948-3.903-4.21-5.169-1.131-1.13-1.978-1.749-2.155-1.49zM89.456 8.277c-1.488.341-1.79.243-2.976.509.564.179 2.581-.12 4.88-.475 2.505-.39 5.354-.86 6.987-1.142-5.567.522-3.538-.196-1.718-1.191-3.365.528-4.485 1.036-5.446 1.511-.516.254-.987.506-1.727.788zm2.553-2.48c-1.178 1.148 3.69.104 9.013-.745-.895-.38-1.429-.938-6.078-.043-.32.225-1.212.469-2.935.788zm64.338 153.64c-2.638-.683-2.567-1-3.901-1.48-1.196-.051-1.924.1-1.601.68 3.347.859 4.26.767 5.502.8zM120.242.956c2.953.031 6.228.086 8.582-.182.923-.165 3.512-.514.208-.373-5.161.08-6.83-.071-8.79.555zM38.388 36.679c-.73 1.135-1.638 2.56-2.287 3.733-.543 1.022-.903 1.846-.89 2.11.368-.638.753-1.297 1.15-1.963 2.364-3.813 5.134-7.668 5.775-9.306-.655.782-1.244 1.513-1.197 1.162-1.178 1.571-2.79 3.803-2.725 4.15.506-.767 1.177-1.468.174.114zm92.883 117.112c3.417 1.075 6.925 1.14 7.016 1.641.223.459-1.681.08-1.596.484 8.967 2.454 2.26-1.242 8.566 1.38-.293-.636 5.476 1.141 4.398.192-2.667-.592-3.04-.972-5.562-1.544-4.593-.53-9.923-2.306-16.85-3.946 2.425.836 2.041 2.51 3.84 2.608zm-76.6-25.67c-1.705-1.381-2.175-2.175-2.114-2.622-4.065-2.937-5.556-3.573-8.173-5.708 4.022 4.257 7.943 7.107 10.286 8.33zm141.416-3.55c2.836 1.26 5.52 2.719 8.055 4.274 7.113 4.254 12.656 9.623 17.74 14.25l.41.378c-.108-.144-.222-.29-.34-.441-1.703-2.155-4.347-4.96-7.494-7.59a64.533 64.533 0 0 0-10.146-6.9c-3.505-1.952-6.59-3.353-8.225-3.972zM59.277 16.051c3.2-1.957 4.663-2.936 4.665-3.252.002-.317-1.461.061-3.916 1.345-.101.916-3.551 2.754-.75 1.907zm21.138 47.19c-.198 1.843.753-.144 1.65-1.424.187-.266.375-.503.534-.665-.397-.193-.816-.453-1.358.31-.256.36-.546.918-.826 1.779zm48.247 37.493c3.283 1.244 7.147 2.155 10.85 2.935 3.826.827 7.473 1.555 10.151 2.378-1.05-.86 2.121-.047 1.648-.68-4.083-1.032-8.036-1.789-11.631-2.435-4.35-.754-8.158-1.394-11.018-2.198zm-20.593-4.134c-.54-1.04 6.79.438 3.095-1.283-1.871-.093-5.986-.135-3.095 1.283zm-4.743-46.31c-.04.18.09.28.348.32.906.158 3.468-.402 5.647-.613.068-.722-3.866.091-5.737.27-.09.01-.177.017-.258.023zm48.272 53.856c.5-.546 11.592 3.181 10.071 1.819-3.59-.6-13.292-3.455-10.071-1.82zm-32.017-8.4c-1.452-.148-2.887-.29-4.296-.424-.508-.185-.85-.332-1.056-.447-.35-.207-.26-.31.087-.342 1.006-.07 4.02.375 5.415.605 6.308 2.107 9.487 1.827 15.408 3.023-5.162-.159-13.45-1.614-18.614-1.88-4.49-1.58 4.276.434 3.056-.535z" style="line-height:125%;-inkscape-font-specification:Sans" font-size="40" font-weight="400" letter-spacing="0" word-spacing="0" fill="#272a2b" font-family="Arial"/><path d="M40.87 202.982H27.142v13.726h13.726v-13.726zM102.689 197.545H89.766v12.924h12.923v-12.924zM45.063 241.523H37.76v7.303h7.303v-7.303zM60.637 211.732h-6.654v6.653h6.654v-6.653zM76.09 196.502h-3.966v3.967h3.967v-3.967zM67.759 181.619H57.702v10.056H67.76V181.62zM218.136 30.898c-.014-.14-.034-.273-.23-.231.543 1.41-2.04 1.01-2.547 1.157.28-.049.143-.258 0-.464.338-.127 1.197.272 1.157-.231-.485.073-2.004.035-1.157-.462 1.451.723 2.611-.789 2.777.231m-25.915-.694c2.886 0 .198.569-1.62.232-.395-.074.026-.236 0-.232.653-.098 1.211 0 1.62 0m34.245-6.479c-.313-.104-1.298-.135-1.85 0 .008-.74 2.377-.457 1.85 0M61.956 46.401c1.144.322 2.707.225 4.166.232-.824-.512-3.516-1.712-4.166-.232m79.595-1.389c-1.124-.313-2.374.033-3.934-.23.639.73 3.218.995 3.934.23m6.247.23c1.048.495 3.017.068 4.164.464v-.694c-.949-.292-2.648-.048-4.164.23m-26.608-.46c-.32-.529-1.61-.087-2.315-.232.322.526 1.612.086 2.315.232m-5.322-.927c-.322-.527-1.612-.086-2.315-.23.32.527 1.612.085 2.315.23m68.255 0c.778.534 2.542.08 3.702.23 1.26-.542-2.341.123-2.545-.46-.652-.192-.6.324-1.157.23m-8.56-.23c-.1-.517-1.14-.095-1.62-.232.189.485 1.22.635 1.62.232m25.912.23c.724-.81-2.13-.46-2.545-.23-3.013.335 2.443.132 2.545.23m-10.873 0c.744.35 3.296.525 3.702-.23-.883-.595-2.027.268-3.702.23m-9.023-1.156c.195.499 1.192.195 1.388.694-1.35.633-3.44-.09-4.627.232 1.934.52 3.357.159 5.552.46-.279-.254-.987-1.38.23-1.154.442-.456-1.855-.138-2.543-.232m-31.468-2.778c-.81.753 1.457.38 2.083.463-.108-1.077-1.913.055-2.083-.463m-61.777-.229c-4.967-.188-9.104.46-13.65.692 2.611.774 5.74-.047 8.56 0 1.714.03 3.824 1.215 5.09-.692m31.698 0c-.605-.068-.995.083-.924.692.604.065.994-.084.924-.692m-16.196 0c-2.373-.016-7.564-.286-8.793.924 3.399-.463 5.352-.03 8.793-.924m1.619 0c1.182.91 2.789-.024 4.628.229-.569 1.27 2.192.21 3.47 0-2.18-.397-5.33-.712-8.098-.229m9.95 0c-.065.372.22.397.23.692-.716-.302-.659.064-1.62 0 1.586.487 3.25.158 4.398-.23-.881-.809-1.764-.332-3.009-.462m51.366.692c2.423 1.292 4.634-.206 7.867.924-1.321.917-4.203.272-6.248.464 2.083 1.06 8.227-.216 10.182.927 7.478-.585 17.159.286 25.45-.927-1.006-.15-2.615.301-3.238-.23-.142-.914 1.27-.272 1.851-.464.028-.874-1.353-.342-1.389-1.157.073-.315.58-.194.926-.229-3.433-.145-6.158 1.085-10.18.924.516-1.256 2.785-.762 4.164-1.157-7.179-1.057-17.848.42-25.914-.232-.026.437-.765.16-.694.694-.724.357-1.71.45-2.777.463m-79.128-3.007c1.548.58 2.5-.181 4.163 0-.5-.769-3.654-.71-4.163 0m4.626 0c5.993-.165 15.748.316 22.905 0 1.396-.06 4.005.123 5.091-.233-1.064.35-2.644-.47-3.934-.46-6.872.056-17.397-.302-24.062.693m41.416-.927c-1.624.66-2.619-.494-4.628.233.222-.08 3.319.898 4.628-.233m59.464-1.156c-.765-.597-2.434-.127-3.01.232-.083-.394.182-.435.464-.463-2.266-.738-6.057.851-8.56-.462-.169 1.092-1.046.49-2.082 1.386 1.582-.117 2.52.412 4.163.233-1.466.539-3.93.078-5.783.23.426.502 1.363.489 2.312.464-2.712.558-6.773-.535-9.718.23 10.257.81 17.002 1.216 27.304.926-.831-.865-2.53-.862-3.934-1.156-.468.713 1.767.694 2.777.694-1.468.538-3.933.08-5.784.233.49-.59 1.602-.557 2.543-.697-.704-.373-1.121-1.036-2.313-.924.037-.272.422-.195.694-.233-1.052-.427-2.966.27-4.628 0 1.93-.389 4.09-.414 5.555-.693m4.163-.462c-.9-.583-2.712-.097-3.47.23.304.547 1.799-.101 1.85.696 1.53.164.504-.853 1.62-.926m-.23.462c1.128.294 3.698.826 4.394-.231-1.085-.755-1.37.513-2.545 0 .877-1.189-.62.732-1.85.231m-10.641-.462c-.053-.333-.691-.082-.695-.463-.51.5-3.297-.068-3.009.463zm-96.023-.693c-1.486-.443-3.13-.728-4.859-.929.039.273.423.196.694.233-.385.747-1.256.266-1.85 0-.786.064-1.876-.178-2.314.232h-2.083c-.735.319.816.229 1.157.232 3.754-.118 5.529.323 9.255.232m1.389-1.158c-.197-.043-.219.089-.23.229-.259-.833-3.6.799-4.166.233.549.55 3.582.027 4.396-.462m20.129-.695c-.304.775-2.601-.44-2.545.695 1.606-.195 3.166-.338 5.091-.695-.447-.41-2.66-.26-2.778-.23-.853.147-2.304-.302-2.776.23zm5.322 0v.695c1.783-.413 3.66-.635 4.628 0-.874-1.517-3.449-.896-4.628-.695m3.934-.926c-.102-.282-.297-.475-.696-.462-2.245.32-2.773.294 0 .694.039-.27.423-.193.696-.232m-16.196 0c1.342-.73-.218-.28-1.158-.231 2.605 1.089 6.672.172 9.255.231-.558-.357-.987-.485.232-.462-1.517-.878-3.956.882-6.247.23 1.607-.364 3.029-.484-.462-.461-.397.374-.845.7-1.62.693m77.741-4.165c.005.225.284.181.464.233-.967.474-2.528-.983-3.24.462 1.775-.42 4.723.853 5.09-.462 1.132.438 1.145.02 2.776.462-.385-.46.02-.292 0-.926-1.522-.184-3.141-.112-5.09.23m21.98-.23c.346 1.02 1.363-.005 2.314.23-.198-.494-1.834-.447-2.313-.23m-3.933-2.775c-.592.373-1.84-.041-2.777.462 1.045.105 2.344.598 2.777-.462m-7.635-.233c-2-1.205-6.597-.182-8.794 0 2.622.392 5.523.203 8.794 0m-2.778-2.545c-.098-.517-1.14-.093-1.62-.23.054.332.693.08.694.462-3.649.496-9.034-.161-13.65.463 4.308.064 11.556.688 15.965 0-.1-.437-2.948-.081-1.389-.695m-.926-.924c-1.093-.092-1.591.413-2.775.231.121 1.152 2.198.225 2.775-.231M83.938 17.942c.694-.226 5.707.68 6.71-.696-3.138-.196-4.766-.032-7.174.232.144.207.281.415 0 .464-.04.196.092.217.232.23.414.067.474-.218.232-.23m8.562-.464c.617.425 2.127.06 3.007-.462-1.051.486-2.26-.46-3.007.462m-2.084-1.156c-.1-.285-.296-.476-.694-.463-2.166.235-2.569.573.694.463m105.276 0c.059.41 2.023.299 3.008 0-.326-1.046-2.38-.16-3.008 0m-110.598.462c1.197.647 1.827-1.253 3.472-.925-.5-.81-2.783.401-3.472.925m121.706-1.62c-.759.014-.887.658-1.853.463.033.816 1.038.66 1.62.926-.955-.852.33-.293.233-1.39m-25.915 0c-1.176.867-3.467.281-5.553.234 1.438-1.082-1.112-.963-2.315-.694.198.573 1.61-.07 1.851.46-.562.44-1.848.16-2.544.464-.172.788.851.382.925.926 6.197.14 10.558 1.057 17.584 0-.16-.188-.36-.634 0-.694-.627-.814-3.528-.408-4.164-.462-.018-1.175 1.814-.5 2.544-.926 1.697-.422-2.477-.215-3.238-.233a25.398 25.398 0 0 1-3.008-.229c-.495-.11-.442.33-.462.694h-5.09c-.75.266.618.263.925.23.647.278 1.596.257 2.545.23m15.732-1.387c-.936-.694-2.15.311-3.469 0-.971.356 2.922.356 3.47 0m-80.75-.23c-.396.53-1.767.084-2.545.23 1.076.766 4.455-.148 6.016.233.943-2.24-6.905-.2-3.471-.463m11.107-.927c.055.407.398.528.925.463-.125.43-.837.21-1.157.232-1.98.14-.614.242 1.388.232.037-.272.422-.195.695-.232-.58-.27-.892-.808-1.851-.695m-30.312 1.39c.326-.372.797-.593 1.389-.695-35.346.511-31.06.522 3.007 1.389-1.227.425-2.23.005-3.933.23.142.208.28.414 0 .464 1.636 1.014 3.403.462 5.784.692-.706.605-2.873-.25-2.775 1.157 3.371-.017 5.407.08 8.56.232.707-.357-1.004-.203-1.389-.232-1.708-.128-2.77-.547-3.7-.924.48-.29.975-.566 1.388-.925-.174-.523-1.299-.092-1.85-.233.196-.728 2.307.457 1.85-.926h6.708c-.122-.183-.24-.375-.23-.692 1.12.04 1.854-.307 2.777-.464-1.894-.217-4.085.33-6.48 0 .114-.735 2.085.39 1.853-.694-2.266-.044-4.918.02-5.555.926 2.148.753 3.401-.134 5.555.462-2.5.624-4.557-.037-6.942 0 .196-.344.581-.496 1.156-.462-2.371-.672-5.362.034-7.173.695m53.91-2.778c3.202.695 5.062-.044 8.33 0-2.245-.326-5.336-.306-8.33 0m-67.329-.926c-.565-.47-1.438.01-1.851 0 .72.514 1.141-.019 1.851 0m4.86 0c-.778-.535-2.542-.08-3.702-.23.775.535 2.54.078 3.702.23m9.716 0c-1.39-.537-3.777-.078-5.552-.23 1.39.537 3.776.078 5.552.23m36.326-.23c.428-.518-1.23.316-1.85.23.35.344 1.015.374 1.62.464-.02-.33-.04-.657.23-.694m-17.12-.462c-.779-.536-2.543-.083-3.703-.235.777.538 2.54.084 3.702.235m-11.338 1.388c-.01-.397.171-.6.463-.696-.437-.584-.81.213-1.387-.23-.268.726.363.561.46.926-.397.459-2.294.459-1.85-.696-.304.237-.853.228-1.155.464.441-.858-.146-.577-.694-.927-1.997.61-3.23 1.424-5.785 1.851-.688-.16-.938-.76-1.39-1.156-.461.266-3.495.651-1.387.694-4.125 1.125-6.566-.536-9.718 0 .046.311.961.431 0 .462.1.52 1.14.094 1.62.233-.071-.314-.58-.192-.926-.233.534-.666 1.687-.005 1.851.464 1.541-.426 2.58.43 3.933.462 1.477.038 2.077-.781 3.24-.926 3.22-.396 7.264.503 10.181.233.26.208-.016.517.462.926 1.29-1.178 4.082-.855 6.248-1.159.165-.627-1.093.165-.927-.462h.463c-1.014-.754-2.828.311-3.702-.23m11.107-.464c-.299.648-.479-.729-1.16-.462.634 2.158-3.081-.285-4.162.23.057.251.46.158.462.464-.394.074-2.328.676-2.312-.694h-1.39c1.415 1.603 3.686 1.25 6.248 1.386-.072.315-.578.192-.927.232-.39.6 1.265-.103 1.851 0-.743-1.32 4.029.552 5.09-.692-.14-.217-.537-.855.234-.696.047-.395-.396-.597 0-.692-.27-.618-1.23-.022-.927.692-.17-.165-1.131-.577-.926.232-.215-.17-.348-.42-.462-.695-.762.009-1.151.391-2.083.233.103.205.204.413.464.462m44.192-.924c-1.083-.537-3.159-.081-4.627-.235 1.083.54 3.16.083 4.627.235m-33.549.924c-.278-.304-.092-.364 0-.695 1.31-.227 1.385.775 2.775.463-.453-.434-.133-1.114.695-.927-1.709-.392-4.08.548-6.247.464.132.217.644.351.232.463.052.334.69.082.694.464.048-.748.568.242 1.851-.232m25.683-1.389c-.008-.303-2.155-.401-2.547.23-1.268-.397-3.033.237-4.858 0-1.253.309 1.311.237 1.851.235.362.081-.202.405.232.462 1.862-.223 3.56-.605 5.322-.927m-5.554-.694c1.66.917 2.542.093 4.858.234-.267-.51-3.444-.1-4.858-.234m8.56.464c1.635-.152 2.643.056 4.629 0-.795-.489-3.929-.94-4.628 0m8.098-.23c1.79.775 2.436.078 4.396 0-.759-.563-3.506.032-4.396 0m-56.687-.928c1.526.792 4.95-.459 1.62-.23-.599.04-1.179.418-1.62.23m28.228-1.157c.806.715 1.895-.252 3.008 0 .219-.499-2.391-.168-3.008 0M81.623 45.476c.412-.172.034-.421 0-.694 2.417-.013 5.651.698 8.33-.464 1.313 1.082 4.955.13 7.405.464-.968-.517-.06-.867.926-.697-3.748-.708-8.136.225-10.642-.23-.84.35-.55.97-2.315.695-.093-.555 1.053.129.694-.695-7.356.212-16.601-.24-24.065 0-.393-.084-.435.18-.46.463 5.825 2.968 13.972-.949 20.127 1.158M185.28 10.769c.89-1.873 4.649-.524 5.785-1.62-.53.228-1.1.21-1.852-.231.364-.022.803.03.696-.464-3.89.905-8.993-.621-11.8.464.271.035.657-.04.694.23-1.003-.238-2.593.346-3.935 0 .284-.025.55-.07.464-.46-.48.135-1.52-.287-1.62.23.18.051.457.005.463.23-2.315.794-7.55-.627-9.718.927 1.807.664 3.73-.884 5.322.694-1.57.204-3.483.066-4.86.462.91.506 2.626-.462 3.47.462-1.628.763-4.614.168-6.477.695 3.887.033 8.94 1.853 12.263.23-1.28-.185-2.776-.154-3.934-.461h-1.852c-1.982-.594 4.943.252 4.86-.696 2.124.687 5.044.465 8.33.465 1.599 0 6.234-.038 3.239.23-.756.402-2.089.226-2.545.926-.524-.375-3.627-1.231-2.313 0-.629.143-1.837-.295-2.083.232.927-.047 1.033.059.463.462 1.093.114 3.966.546 3.933 0-.008-.139-3.172.298-1.156-.23 1.35-.356 1.693-.152 3.47 0 .364-.177.345-.735.925-.694 3.832-.318 6.72-.168 10.18 0 .091-.359.279-.036 0 .23-.93.15-2.46-.3-3.007.232.989-.134 4.303.794 4.164-1.157-1.89.237-2.905-.226-.462-.23-.013-.297-.298-.324-.232-.696 3.088.09 6.036-.372 8.792.23-.311.46-1.615-.072-1.619.696 1.3-.161 2.031.07 3.007.231-.272.037-.655-.038-.694.23 2.064-.055 3.372.641 5.554.464.512.332-.293.566.231.694 2.576-.068 1.902-.54 3.24-.23-.22-.052-.295.401 0 .463.486.1 2.103-.28 3.24.462-1.874.145-3.988-.453-5.322.232 1.827-.195.262.688 1.387.694-.496.274-1.294.248-1.62.692-.203-.742.6-.48.695-.925-1.178-.175-1.837.17-1.851 1.158 7.075.234 10.563.876 15.27 1.156-.965 1.35-5.052-.423-6.016.926.815-.192 2.619-.194 3.24.232-1.331-.48-3.074.38-3.074.38s-2.22-.662-2.248.313c1.001 1.175 3.918-.564 4.628 1.158-.726-.678-2.311-.247-3.238-.464-.092.399.343.595 0 .695-2.24.27-3.644-.038-6.017.232 2.577-.087-1.246.75-2.314.693-.056-.001-.606-.68-.695-.693-.887-.143-1.6 1.225-2.083.46.365-.021.803.032.695-.46-.797.54-1.488-.19-2.314.693 5.438.67 10.653.137 14.807.925-.935.359-3.823-.223-5.32.695 1.534.51 3.24-.397 3.703.926-3.99.827-9.816-.477-13.419.232 1.591.034 2.644.69 3.469.924-2.242.2-3.878-.365-5.322.463.386.029 2.097-.127 1.388.23-.335.128-1.196-.268-1.154.232 1.493.045 4.087-1.334 3.699 0 1.004-.078 2.425.265 2.778-.462-.385-.026-2.096.127-1.389-.231 2.892-.114 8.215.445 10.875.693-4.387.316-8.202.367-12.958.925 2.569.178 4.485-.296 6.943-.23.7.32-.06.656.693.925-.051-.29-.361-.473.23-.462.938-.32.733.502 1.39.462h1.156c.55-.19 1.068.328.231.232-5.094 0-7.952-.119-11.8.23.837-.013 1.852-.071.927.463.604.072 2.11-.255 1.387.464-3.352.221-10.395 1.017-13.188-.464.577.163.95.23 1.388-.231-.83-1.198-3.178.447-4.395-.462 1.028-.378 3.004-1.112 4.163-.232.898-1.218 2.387-1.407 3.472-1.388 0 .927-1.549.306-1.853.926.617 0 1.323-.087 1.621.232.096-1.834 3.096-.76 4.165-1.621-1.187-.251-2.672.4-3.24 0 .216-.247.854-.073.695-.694-1.958-.465-6.014.08-8.562-.464.348-.038.854.085.927-.23-4.132-.4-9.411-.008-12.726.23.364.024.803-.03.695.464-2.194-.382-4.851-.232-6.943-.232.9.874 3.463.087 4.628.695-.273.036-.655-.04-.694.23 2.535-.547 4.106.297 6.71.232-.26-.048-.36-.256-.462-.462 2.748 1.03 5.74.021 8.096 1.156-2.934.365-3.415-.24-5.782.464 1.363-.154.815.263 1.386.694-3.104.689-7.78-.857-9.254.462.202-.18.73.224.695.231-2.891.59-4.675.024-7.636.696 1.386.195 3.367.496 3.933.231-.306 1.313-3.626-.388-3.933.925 3.342-.16 6.429-.129 9.486.231 1.072.126 2.203.821 3.24.926-.009-.001-.183-.475-.231-.464 2.049-.57 5.909.288 8.328.696-.567-.573 2.303.187 1.851.23-1.536.246-2.59-.005-4.164.463 2.696.014 4.395.172 6.48 0-3.132.784-8.278.742-11.34.232.402-.449 1.897.197 1.852-.695-2.733-.235-4.355-.227-6.71.233 1.202.467 1.815.12 2.777.691-1.748.182-3.78.08-5.322.465 8.77.309 14.898.684 23.6-.465-1.634.047-3.974-.013-4.626-.229.144-.394.698-.382.925-.695-.476-.14-1.609.372-1.389-.462 1.076-.654 3.221.066 4.395-.926-.409-.051-1.156.234-.926-.462 3.05-.11-.713-.14-.462-.462 4.898-.602 8 .35 11.57.924.951.154 2.283-.7 2.546.694-.284.025-.548.07-.464.464-3.166-.44-7.39-.242-9.484.463.704-.168.841.235 1.386.23 1.683-.786 4.15-.773 5.785-.463 1.452.008-.001.391-.694.233h-2.546c.051.291.361.473-.232.462-1.082.15-2.77-.302-3.47.229 2.112.263 7.007-.043 8.561 1.159-2.849.292-5.249-.46-6.71.694.605-.48-.32 1.206-.461.695.614.288 2.557.195 4.163.229 1.364.03 4.077.015 1.851.233-1.202.527-3.78-.624-4.858.463 1.107-.028 2.093.064 2.775.461-2.853.154-6.322-.307-8.792.233 3.953-.094 6.905.808 11.107.464.358.822-.786.139-.694.692 1.593-.192 3.28.163 3.934-.463-.76-.1-3.153.234-2.778-.23 2.275.006 3.23-.095 5.321 0 .297 1.17 2.56.371 3.24 1.157-1.02.345-1.594-.24-2.312.23.345.04.853-.083.925.232-2.396-.803-8.361 2.043-10.181.233.065.06.549-.1.462-.233-1.435.415-3.65.054-4.628.925.567.669 1.81.659 2.313 1.388-.995-.247-2.031.089-3.007.465 1.386-.005 3.453-.309 4.628.462-1.492.236-2.353-.093-3.24.926.987.59 2.621-.504 3.702.23.099-.52 1.228-.006 1.39-.462.624.533 2.231.08 3.238.232 1.01-.005.04.398-.462.23h-1.851c-12.824 1.162-23.57.304-37.019.695-.002.34-.645 1.16-.927.462.275-.113.524-.246.694-.462-3.107.244-5.418-.555-7.405.232 2.16.065 4.658-.42 5.554.46-.806.584-2.935-.157-3.239.928 1.952.013 4.324-.09 5.323.231 1.16.15 2.925-.304 3.7.232h-1.387c-11.983.29-24.273-.564-34.012-.695-2.965-.039-6.757.447-7.867.232-1.925-.374-4.046.766-4.86-.694-1.145 1.561-3.636.363-5.553 1.157.176-.983 2.157-.158 2.545-.927-2.823.13-4.532-.939-6.478 0-.382-.001-.128-.64-.463-.694-1.087.602-2.928-.375-3.933-.462-.382-.034-1.206.458-1.389.462-3.986.104-8.93.083-14.577.23 1.714-1.25 4.405-.476 6.942-1.387-3.603.409-8.959-.938-11.105.927 1.919-.165 5.423.242 1.62.23-.002.383-.643.129-.696.464.18.051.456.005.463.23-.407-.133-1.358.28-1.387-.23.271-.037.657.038.694-.234-1.868.014-5.118 1.013-6.25.234.339-.127 1.197.27 1.16-.234-1.274-.175-4.767 1.257-4.165 0-.79.036-2.518-.177-1.387.464-6.692.105-14.885-.458-19.9 1.62.883-.244 2.553.354 3.702 0-1.307 1.932-5.433.336-7.173 1.387.271.037.655-.038.695.232h-1.853c-.58-1.04-1.592-1.646-1.85-3.007.209-.486 1.306-.083 1.388-.696-1.646-.876-2.043-1.922-3.702-3.005 1.382-.66-.124-2.766.927-3.704-.413-.127-.962-.118-1.159-.463.482-1.09.634-2.94 1.39-3.931-.752-.135-1.077.155-1.62.23-.929-.865-1.695-3.068-.462-4.165.183 1.64-.54 2.77.462 3.471.02-1.49 1.968.311 2.313-.926-.047-.31-.96-.43 0-.463.433-.03.394 1.367 1.388.463-1.217-1.095-2.368-2.26-3.007-3.934.125-.798.983-.868 1.156-1.62-.309-.538-1.34-.356-1.85-.693.635-1.048-.512-1.21-.462-2.313.269-.425 1.227-.16.924-1.157-.706.166-.843-.238-1.388-.23.123-1.502-.27-1.38-.924-2.315 29.168-1.78 12.778 7.167 25.634-6.46 3.618 1.619 9.61-7.166 13.698-6.497.173.027-.058.498.463.462 2.926-.192 6.626-2.714 8.791-.695 4.321.248 8.323-.406 11.57 0-.838.165-1.917.087-2.544.463 1.742.07 4.127.482 4.626-.925-1.244-.086-2.59-.223-3.702-.232-3.604-.026-7.734.958-9.718 0 5.553-.156 12.86-.543 18.973-.23 1.463-.957 5.146-.155 8.33-.464 1.032-.1 5.89-1.305 4.397 0 6.47-.61 12.513.536 17.122-.695-.337-.124-1.197.272-1.157-.23 1.336-.543 4.455-.642 5.091 0-1.42-.028-2.766.012-3.704.463 4.144.23 9.013.515 12.263.232 1.801.684 8.546-.267 11.339.462-.143.322-.892.034-.927.462.983.405 2.604.173 3.935.232.5-.167 1.47.236.462.23h-.694c-4.577 1.711-8.742.202-14.115 1.159 8.414-.226 16.429.697 24.527-.694-.365-.023-.803.031-.695-.465h1.389c-.074-.311-.33-.441-.232-.924 2.63-.6 6.421-1.472 9.254-.462-.233.001-.289.406 0 .462 4.78-1.447 11.262.031 15.965.462-2.925.595-5.618.642-8.098.694.345.041.856-.081.926.233-2.342-.58-6.147-.041-9.023.23.688.095 2.985-.224 2.545.232-2.775.583-5.118.318-7.405 1.156.46.534-.057.258-.231.694.614.273 1.362-.441 1.389 0-3.768 1.599-7.395-.036-11.8.927m-79.13-6.48c.374.466-2.02.13-2.777.231-.247.269-1.066.086-1.39-.23 1.246.19 2.44-.099 4.166 0m86.071 43.269c.704.143 1.993-.299 2.315.23-.704-.146-1.993.297-2.315-.23m-27.996 0h-2.083c.064-1.01 1.751-.207 2.083 0m-51.597-.696c-2.527-.333-5.527.95-7.405-.23 2.94.07 5.189-.391 7.405.23m7.866-.462c.781.146 2.15-.3 2.547.232-.78-.146-2.15.297-2.547-.232m3.24 0c.86.164.994-.397 1.852-.231.235.792-1.74.549-1.851.231m80.285 0c-2.354.412-8.218.365-11.335 0 2.921-.054 7.664.037 11.335 0m.234 0c1.576-.112 2.667-.037 3.702-.231-.622.656-3.025.689-3.702.231m2.313-.463c.5-.815 2.95-.902 3.934-.462-1.719.288-2.622.443-3.934.462m-27.07-.926c1.468.152 3.544-.305 4.626.23-1.466-.15-3.543.309-4.627-.23m36.326-2.313c-2.122-.2-4.73 1.023-5.09-.462 1.306.62 3.483-.45 5.09.462m.23-.927c-.854-.146-2.304.3-2.776-.23.518-.29 2.61-.558 2.777.23m-33.086-.924c1.008.149 2.614-.303 3.239.23-.63.282-2.965.583-3.24-.23m15.504.924c-1.646.03-4.256.847-4.861-.694.908-.556 3.005.073 3.934-.462-.315.99.989.843.927 1.156m9.024-1.388c.676.208.708.208 1.386 0 .332.722-1.72.722-1.386 0m-21.75-.463c.854.149 2.304-.298 2.776.233-.488-.14-2.537.505-2.776-.233m-13.652 0c-.229-.028-2.037.782-2.313-.229.702.143 1.992-.298 2.313.229m3.24 0c-1.109-.324-2.176.587-2.777 0 .355-.366 3.189-.366 2.777 0m8.56-2.313c.855.149 2.305-.3 2.777.233-.856-.148-2.304.298-2.777-.233m42.342.462c-2.564-.225-4.34.546-5.785-.23 2.375.283 4.747-.565 5.785.23m-42.111-1.156c.92.16 2.562-.403 2.776.463-.39-.463-3.894.001-2.776-.463m40.03-2.313c-.439-.104-1.395.314-1.158-.462h1.158zm-33.088-3.472c-.856-.147-2.306.3-2.775-.23.564-.067 2.781-.253 2.775.23m27.302.463c-.113-.725.799-.61.23-1.156 1.384.594 2.93-.398 4.167.23-1.487.882-2.27.262-4.397.926m6.016-.925c.831-.535 1.461.106 2.315-.23-.266.994-1.547.743-2.315.23m-34.939-.23c-4.204-.165-7.757.36-11.335-.233 2.78-.321 7.894-.398 11.335.232m24.064-1.852c1.8-.958 1.666.91 0 0m4.86 0c-1.34.06-2.023.028-2.777.231-.116-.903 3.277-.45 2.776-.231m-26.608-.232c-.458-.475-.458-.219 0-.692-.179-.052-.458-.005-.462-.232h1.156c.04.578-.518.56-.694.924m5.09-1.388c-.723.498-2.148.1-2.777-.23.803-.196 1.631-.18 2.777.23m-5.322-1.387c.778-.148 2.728-.127 3.701.231-.841.59-2.669.52-3.7-.231m23.137 0c.707-.185 1.55-.397 2.313 0-.348.282-1.993.454-2.313 0m6.017-.232c-.778.255-1.593.28-2.084-.232.688.01 1.85-.69 2.084.232m6.71-.464c-1.55.031-3.517.572-5.786 0 1.408-.186 4.042-.593 5.785 0m-3.238-1.618c-1.555 1.041-3.35-.37 0 0m-2.547-8.792c-.105-.348 3.28-.413 3.934 0-1.945.169-1.777.039-3.934 0m-117.075.232c-1.067.122-2.468-.772-3.007.23-.037-1.443 2.372-.803 3.007-.23m-5.322-1.157c3.496-.365-.714 1.073-1.62.463.414.046.83-.38 1.62-.463m-9.024.463c2.114-.277 4.302-1.526 4.165-.233 1.018.171 1.89-.71 2.082.462-4.125.16-8.1.47-12.03.465 1.27-1.637 3.398-.38 5.783-.694m100.417-2.083c-1.107.028-2.094-.068-2.777-.465.47.018 2.487-.401 2.777.465m-5.784-1.157c-.666.047-1.175-.06-1.388-.464.477.14 1.606-.373 1.388.464m42.342-.694c-.705-.146-1.993.297-2.314-.233.728.267.561-.362.925-.464-.096.659 2.015.278 1.389.697m-16.891-2.083c.931.148 2.46-.3 3.007.232-.93-.15-2.46.3-3.007-.232m-.23.232c-1.16.323-3.115-.242-4.398.464.645.403 1.984.116.694.69 2.515-.704 6.4-.518 8.794.235-3.797-.596-6.776 1.397-9.948-.235-.45.185-1.404 1.047-1.853.464 1.584-.393.108-1.181 1.156-2.082 1.996.012 4.136-.126 5.555.464M83.706 7.065c3.059-.288 2.587.694 0 0m12.957.232c-1.256-.251-2.389.734-3.009-.232.958-.257 3.024-.24 3.009.232m87.923-.232c-.553-.14-1.678.292-1.85-.23.646-.276 1.407-.263 1.85.23m1.39-1.156c-.948-.056-2.231.226-2.546-.462.953-.274 2.412.18 2.545.462m-58.77-.925c-5.369.257 2.3-.995 0 0m40.722-.229c-2.872.474-6.188.486-9.255 0 2.76-.189 6.557-.518 9.255 0m33.086-.235c.434-.05 1.534-.595 1.853 0-.619-.133-1.447.685-1.853 0m-102.266 0c-1.05-.261-3.175.554-3.472-.46 1.336.432 2.648-.343 3.472.46m36.787-.23c1.038.33 1.982-.624 2.546 0-.953.148-1.942.709-2.546 0m83.527-.695c-1.169-.69-1.973-.356-2.161-.2l-2.235-.03c-1.62.428 2.327-.006 1.388.463.311.145 1.786-.52 3.008-.233M91.659 221.068h-9.263v9.347h9.263v-9.347zM42.83 191.813h-2.79v2.79h2.79v-2.79z" fill="#272a2b"/><path d="M60.917 236.452h2.376v2.377h-2.376v-2.377z" fill="#272b2b"/></svg>