<svg xmlns="http://www.w3.org/2000/svg" width="216.423" height="273.534"><path d="M209.913 167.447c.892 2.082 1.54 3.443.793-.018-1.5-1.56-1.526-2.757-1.425-3.793-3.687-4.044.407 2.455.632 3.811zM76.427 7.073c4.358-.795 4.296-1.475 6.017-2.173-1.043.127-2.086.264-3.129.409-.96.148-1.83.299-1.525.442 5.543-.44-4.398 1.052-1.363 1.322zM200.58 152.94c-3.078-3.725-3.97-5.475-7.662-8.658-.744.245 2.462 2.838 1.731 3.064 3.288 2.375 5.409 5.755 5.931 5.594zm-128.118-1.111c-1.307-.776.356-1.074-4.206-2.407.974 1.903-8.193-2.634-4.917-.196 2.315.044 7.378 2.644 9.123 2.603zm4.977-.463a34.304 34.304 0 0 1-.907-.215c-2.702-.739-2.67-1.118-6.54-2.118 2.746 2.057 4.866 3.573 6.156 3.59.638-.007 1.072-.384 1.291-1.257zM36.491 18.101a41.322 41.322 0 0 1-2.623 1.508c-2.664 1.429-4.86 2.395-5.92 3.768 1.936-1.35 4.226-2.14 6.19-3.345.86-.523 1.656-1.135 2.353-1.93zM4.63 89.35c.08 2.061-.348.696-.822-1.113-.473-1.809-.925-4.062-1.245-3.67.302 2.39.896 8.65 1.311 8.286-.442-2.693.253.082.93 3.258.697 1.083.732-.265.579-2.035-.153-1.77-.444-3.983-.753-4.726zm91.478 69.812c-2.694-1.33 1.831-1.124-.975-2.697-4.727-.956-5.775-1.636-8.86-2.499 1.1.983-2.508.104-3.258.354 9.425 2.13 3.568 2.833 9.99 4.595-1.232-1.138 4.944.889 3.103.247zM17.136 33.99c.1-.39-.318-.327.754-1.582a58.176 58.176 0 0 0 4.674-4.93c-.023-.557-1.729 1.019-1.838.57 3.209-3.771 6.872-6.467 11.515-10.44-5.455 3.554-10.916 9.131-14.71 12.213.685.347-.78 3.577-.395 4.17zm141.02 89.623c1.77.361 4.124 1.277 6.517 2.253 2.516.98 5.068 2.043 7.135 2.55-1.006-.648-3.996-1.91-6.994-2.937-4.233-1.527-8.454-2.641-6.657-1.866zm-71.11-75.346c-1.904.805 3.589.092-1.077 1.516 3.267-.6 5.055-1.04 5.156-1.616-2.652.359-2.7.027-4.08.1zm-18.25 5.644c-2.654 1.245-3.653 2.293-4.346 3.195-.465.613-.782 1.17-1.22 1.813.634-.41 1.202-.784 1.72-1.138 1.966-1.35 3.373-2.403 5.38-3.372-2.267 1.05-.818-.49-1.534-.498zm18.624-3.253c4.014-.571 11.204-.306 13.46-.728-3.572-.06-9.965-.429-13.46.728zm-8.483 48.203c1.702.453 7.32 1.017 1.762-.999 3.7 2.134-4.795-.636-1.762.999zm34.06 54.698c-4.458-1.39 3.9.305 3.211-.38 4.079.792-1.294.76 2.773 1.555-1.06.135-3.448-.668-2.922-.912-1.338-.212-2.694-.431-3.062-.263zm-19.336-4.202c-3.123-.618-3.888-1.051-5.872-1.593 1.37-.008 2.37-.148 6.073.736zm-28.081-6.803c2.218-.49 3.825.493 6.113.788 1.886.865 2.737 1.51 4.352 1.27 1.96.622 1.076.873 1.235 1.257-4.69-1.336-6.322-1.346-11.7-3.315zm9.77 4.607c-2.89-1.222-.189-.824-5.734-2.155.292-.455 4.325.858 8.029 1.874l.898.225c.686.476-.042.376-1.004.18-1.34-.302-3.133-.82-2.189-.124zm92.372-13.043c-2.064-.323-3.582-.941-5.422-1.74-1.62-.733-3.487-1.617-6.194-2.486 1.523.072 3.952.877 6.407 1.902 1.836.733 3.684 1.594 5.21 2.324zM78.113 7.929c1.404-.036 3.494-.264 6.17-.585-1.308.473-2.221.925-6.04 1.455zm30.84-2.04c-20.95-1.672-6.644 6.193 0 0zM28.742 26.98c.356-.053-.351.555-1.083 1.208-1.583 1.465-.618 1.283-.597 1.71-1.843 1.422-3.814 3.291-4.016 2.705 3.241-3.153 2.661-3.227 5.696-5.623zm35.794-15.769c-1.981.633-2.677 1.176-2.778 1.63-6.555 1.646-12.977 4.198-13.66 3.34 3.688-1.21 4.004-2.46 1.2-1.219 4.781-2.613 6.483-1.331 3.322-.115 2.788-.275 3.661-2.02 8.847-3.07-.632.311 2.14-.48 4.08-.959 1.942-.48 3.02-.779-1.011.393zM48.365 140.018c-4.969-2.077-3.525-3.371 1.865-.344-2.276-.475-3.138-1.023-1.865.344zM43.219 16.975c1.533-.597 1.678-.306 4.532-1.602.162.71-1.418 1.81-5.138 3.875 2.359-1.94 2.554-2.21.606-2.273zm.29.591c-2.707 1.906-4.92 2.99-7.932 4.718l-.235.136c.065-.057.135-.116.208-.178 1.74-1.46 5.692-3.946 7.96-4.676zm83.047 144.846c-3.637-.838-7.128-1.66-8.826-2.319 1.477-.186 8.58 1.509 8.826 2.32zm.591-43.342c-.646.966-6.559-1.043-10.775-1.902-1.088-.215-2.061-.358-2.8-.358-2.028-1.3-.18-1.014 2.946-.283 3.134.75 7.54 1.978 10.63 2.543zM115.8 161.674c-6.5-1.856 1.475-.397 1.78-.938 4.233 1.311-.672.96-1.78.938zM58.714 93.566c1.099 1.314 1.21 1.554 1.078 1.686-.132.133-.477.138-.03.924-1.058-1.07-2.487-2.355-4.402-4.485-.016-.738 1.447 1.055 2.905 2.354-.907-1.214-.115-.57.449-.479zm46.373-48.143c-3.383.112-5.547.1-7.216.001-.213.268.352.37 1.464.372-.73.173-4.45.489-7.793.848-3.343.36-6.332.772-6.059.324 1.878-.348 3.82-.613 4.086-.39 2.384-.353 3.095-.721 2.655-1.182 3.598.255 12.969-.65 12.863.027zm26.485 68.147c1.577.08 6.462 1.399 10.038 2.66.117.038.233.076.347.115a4.95 4.95 0 0 1-.37-.019c-1.86-.173-6.203-1.344-8.676-1.751.215-.272.371-.553-1.34-1.005zM58.374 84.346c-.796-.963-2.191-2.49-1.995-4.957.587 1.252 1.113 3.087 1.995 4.957zm30.45 46.697c18.192-10.16-110.278-66.05-15.937-90.576 7.725-3.149 34.307-2.523 34.307-2.523s51.048-30.033-.366-32.705c-1.36-.11-2.64-.222-3.812-.348 1.228-.03 2.74-.005 3.812-.026.746-.034 1.297-.085 1.411-.19-.47-.012-.941-.02-1.411-.026-5.277-.214-11.022-.117-15.927.076-4.905.194-8.951.456-10.646.092-6.173 1.164-9.033 2.287-11.662 3.11a77.17 77.17 0 0 1-4.424 1.138c2.03-.495 3.511-.689 4.536-.713 1.46-.088 2.048.157 1.901.656-.558.172-1.09.338-1.598.496-4.809 1.385-7.445 2.272-9.643 2.857-2.198.586-3.995.912-7.567 2.42-3.121 1.317-8.292 4.056-13.211 7.412-5.043 3.613-9.18 8.092-10.775 9.817-4.632 5.002-7.72 8.318-11.394 15.156-2.114 4.353-4.368 10.176-5.185 18.87a64.56 64.56 0 0 1 4.204-13.21c-2.782 7.662-4.34 15.498-4.61 23.238-.951 11.984 2.406 25.868 11.4 39.877 7.944 10.145 17.154 17.61 26.5 22.264-8.845-4.904-18.11-12.477-26.015-22.641-9.25-14.475-12.157-28.466-11.133-39.5a65.177 65.177 0 0 1 4.29-20.187c-1.91 6.454-2.6 12.638-2.53 15.682.592.308 1.068-2.604 1.877-6.013.809-3.409 2.037-7.318 2.974-8.99-2.333 8.817-2.662 14.59-2.78 19.508-.242 3.719-.13 7.139.51 11.043.641 3.905 1.78 8.32 4.526 14.01-.88-.45 1.161 5.022 5.715 11.764 2.826 3.437 6.255 6.882 9.143 9.476 13.6 10.123 30.552 15.367 46.084 17.82 9.804 1.545 17.051 4.736 28.268 6.466l.239.025c34.937 8.65 30.597 6.683-.143-.448-19.593-3.737-16.642-4.744-1.128-.969.332-.17.813-.274 1.422-.322 26.915-.918 72.449 18.146 87.321 11.019 3.45.162-5.213-4.596-7.137-5.672-8.14-7.518-18.29-11.877-28.314-16.839-.15-.09-.297-.182-.439-.271.144-.01.319-.003.529.023.776.086 2.034.421 3.968 1.182.849 1.622 7.839 3.58 9.875 4.323 2.41 1.513 4.448 3.01 6.108 4.415l.186.156c.83.236.511-.143.043-.562-.669-.61-1.635-1.306.178-.317l.212.114c.92.58 1.389 1.673 2.083 2.51 2.255 1.889 3.272 2.064 6.258 4.405.704-.427-3.748-3.65-4.246-4.688 3.871 2.458 4.17 4.03 6.283 4.645-2.67-2.57-6.292-5.519-10.196-7.685a43.49 43.49 0 0 0-3.938-1.986c-3.947-3.473-12.162-6.727-15.86-9.129a11.634 11.634 0 0 1-.435-.305l.493.144c7.087 1.988 15.317 5.776 21.172 8.733 3.655 1.812 6.405 3.382 7.785 3.616-2.744-2.05-5.48-3.123-7.555-4.024-1.06-.467-1.943-.904-2.587-1.428.193-.151 1.563.56 2.737 1.161 1.03.518 1.912.963 1.831.644-.5-.225-1.077-.517-1.715-.85-4.556-2.423-12.449-6.926-14.159-6.803 3.567 1.67 4.305 1.915 6.965 3.87-6.33-3.032-10.12-4.245-14.248-5.54a319.788 319.788 0 0 0-10.93-3.404c2.235-.318-7.07-2.268-5.686-2.756 7.185 2.04 11.925 3.041 17.038 5.003a45.538 45.538 0 0 1 3.929 1.645c3.5.436 17.73 6.851 17.73 6.851 3.175 1.559 5.94 3.145 7.813 4.028-1.312-1.154-4.036-3.036-7.368-4.82-4.84-2.644-10.914-5.216-14.733-6.702-3.82-1.485-5.34-2.14-1.067-1.021-2.36-1.012-4.086-1.596-5.557-2.031-1.827-.571-3.257-.905-5.101-1.423-1.293-.837-5.143-2.419-7.619-3.554-2.476-1.135-3.557-1.95.821-1.364-7.02-2.009-5.22-2.753-5.794-3.188-1.903.175-4.992-1.504-4.503-1.78l-.358-.08c-9.88-2.364-12.893-2.164-19.034-4.612.694 1.081 4.227 2.412 8.546 3.843-1.49-.361-1.816-.255-3.022-.5-4.082-1.578-7.25-2.355-10.556-2.989-3.7-.685-7.575-1.206-13.13-2.524.607.943-1.501.814-4.7.231.053-.214-1.126-.54-1.373-.786 1.152.23 2.901.698 2.999.5-7.722-1.57-6.541-2.009-7.169-2.432a11.113 11.113 0 0 1-4.12-.906c-1.252-.553-2.136-1.233-2.787-1.558-2.476-.026-6.592-2.225-7.776-2.906-2.213-.144-4.994-.644-7.637-2.627.53.976-.676.865-2.661.07-2.228-.891-5.402-2.82-7.693-4.886-2.29-2.066-3.656-4.218-3.853-4.913a.752.752 0 0 1-.004-.02l.014.012c3.42 3.81 6.327 6.68 8.371 7.402-1.36-.829-.98-1.31.347-.562.43.557 1.573 1.372 3.177 2.249.293.157.6.316.919.476-.486-1.455 1.345-1.75 1.245-2.576-.34-.097-.66-.197-.965-.3-1.93-.632-3.158-1.35-4.518-2.223a81.367 81.367 0 0 1-5.065-3.479c1.232-.523-1.082-1.311-1.776-2.336a.179.179 0 0 1-.01-.012c-.966-1.228-.926-2.076-.732-2.244.194-.168.645.17 1.132.419.487.249 1.013.39 1.272.257.26-.133.195-.395-.106-1.535-1.203-1.61-1.779-4.598-2.022-7.664-.029-1.96.167-3.814.568-5.456-.378 2.547-.82 3.748-1.219 3.636-.399-.112-.704-1.635.144-3.862l-.001.002c-.358.351-.503-.564-.667-1.299-.163-.734-.389-1.32-1.047-.121.186.272-.07 1.644-.303 2.943-.233 1.3-.47 2.524-.67 2.249-.115-2.818-.096-3.457-.895-2.282.027-2.267.921-4.403-.291-2.303.379-1.966.912-3.658 1.557-5.153 1.332-3.36 3.723-6.004 7.133-8.618 3.251-2.478 7.918-4.603 15.647-6.72.79-.923-3.668.628-2.889-.316.887-.212 1.899-.468 2.91-.708 2.228-.533 4.447-.884 5.036-.622-2.274.43-3.3.897-3.779 1.302 3.958-1.307 9.805-1.727 14.739-1.816-3.71.487-2.44 1.125.096 1.318-.278-.186 2.435-.17 5.301.107 2.867.276 8.178-.442 8.306.012 14.22 4.016 12.97-40.984-1.656-43.087-1.472-.2-1.723-.536 0-1.08l.213-.065c12.4.994 20.183-2.974-.213-.506-1.178.139-2.431.27-4.466.327-.356-.408 1.754-.512 1.57-.905-1.867-.01-4.441.136-4.72-.11 3.26-.084 5.725-.135 7.616-.213 23.474-.318 17.901-5.104 0-1.178-1.78.381-3.59.771-6.052 1.121-2.747-.128-5.48-.195-4.768-.923-6.503.291-4.022 1.355-9.334 2 3.13-.3 6.265-.525 9.398-.678-.871.833 1.876.979 3.192 1.41-2.93.05-3.422.373-6.21.522-1.124-.301-1.924-1.82-4.773-.961 3.38.034-1.07.62 1.663.966-5.114.082-4.495.435-7.705 1.216 2.245-.151 7.977-1.054 7.758-.558-9.588 1.454-15.145 2.264-22.7 3.57-.62.107-1.256.22-1.907.341 1.536-.35 2.006-.063.1.43.063-.968-3.451.686-4.561 1.146-3.185.47-2.922.961-6.087 1.622.678-1.046-.788-1.298-2.365-1.977 4.556-1.757 5.915-2.583 4.765-2.703-1.15-.12-4.842.544-9.973 2.807-.586.712 1.545-.155 3.772-.959 2.227-.803 4.552-1.539 4.217-1.016-4.047 1.534-3.854 2.33-7.157 4.01-.408-.099-1.782.369-3.157.881.782.22-5.785 4.076-5.333 3.85-2.572 1.29-2.841 1.62-3.007 1.83-.165.21-.223.313-2.24 1.472 0 0-1.74 1.005-3.074 1.836l.641.897c-3.809 2.497-3.206 2.692-6.124 5.233-1.442.252-4.014 1.867-6.947 4.63.724-.298-3.21 5.295-3.89 5.362 1.592-2.733 2.77-4.552 4.05-6.304 1.277-1.753 2.663-3.447 5.006-5.638-2.247 1.512-6.568 6.61-8.806 10.538-1.12 1.963-1.796 3.572-1.84 4.088-.042.516.497-.086 2.131-2.306-.842 1.52-2.39 4.029-2.825 5.275-.18.527-.18.82.107.716l.28-.496c.922-1.579 2.097-3.453 2.43-3.534.697-.057.394.856-1.472 4.076-.09.156-.18.318-.275.486-.408-1.243-2.28 2.499-4.113 6.96.686-2.053.764-3.03 2.389-6.04-2.4 3.27-1.409.072-2.998 2.262-.94 3.21.634 1.142 1.407.616-2.293 5.17-3.518 9.95-4.204 8.93-.941 3.332-.538 2.849-.195 2.39.342-.46.62-.887.008 2.59-.538 2.265-.948 3.86-1.365 4.711.123-3.74-.18-5.336.091-8.335-.618 1.837-1.258 4.331-1.627 8.16-.095 2.532.208 1.42.487.254.279-1.165.546-2.388.39-.154-.239 2.804-.453 3.31-.706 3.883-.252.574-.546 1.224-.466 4.267.675-4.944.765-1.923.937 1.583.143 3.509.558 7.578.94 4.862-.385-2.012-.455-3.535-.431-4.862.026-2.573.367-4.426.216-8.026.29-.067.522-2.037.827-1.557-.283 3.982-.506 7.583-.423 9.583.034.99.14 1.59.36 1.643.171-.189.155-.86.126-1.643-.057-1.276-.136-2.866.35-3.131a42.3 42.3 0 0 0 .242 3.13c.145 1.411.313 2.83.495 4.765-.243 3.106-.78.535-1.32.073C6.9 87.98 6.657 93.15 8.405 96.891c-.063.263.183 1.888.281 2.874.099.986-.046 1.349-.891-1-.692-2.303-.374-5.233-1.222-4.761-.435-1.783.095 4.148-.038 5.143.675.243.9.185 2.096 3.063.546 1.277 1.296 3.143 2.598 5.8-1.006-1.387-1.454-1.112-2.392-2.553 1.984 5.57 4.537 7.28 4.847 8.75.358 1.085-.8-.484-1.628-1.697-.829-1.213-1.422-2.016.01.736.873.575 1.738 2.004 2.95 4.14 1.267 1.086-2.293-4.514.714-.51 1.27 1.802.557 1.47 1.65 2.939-1.645-3.41 2.484 2.364.859-.689.503.642.957 1.17 1.374 1.626a27.986 27.986 0 0 0 2.041 1.952c-1.775-.675 3.67 4.142 4.175 5.169-2.93-2.64-3.143-2.71-2.866-2.006.276.703 1.156 2.086.574 2.037 2.53 1.29 3.653 4.046 6.573 5.271 1.21-.479-3.953-3.154-4.856-4.638 3.331 2.582 3.65 2.53 3.2 1.936-.451-.595-1.568-1.858-.955-2.06 2.178 1.784 3.107 2.094 4.091 2.498.984.404 2.02.912 4.752 2.632.292.183.603.381.937.595-.508-.217-.86-.331-1.08-.36-.306-.041-.355.083-.196.326.244.379 1.002 1.046 2.086 1.78.484-.313 3.207 1.117 6.296 2.618 3.09 1.5 6.559 3.053 8.26 3.455-3.405-1.996-2.044-1.444-.653-.862 1.39.582 2.812 1.186-.335-.775 1.487.773 2.982 1.293 4.324 1.729 1.85.555 3.409.971 4.318 1.707-2.052-.357-6.517-1.53-3.39.167 6.276 2.5 4.295.471 4.979-.073 5.255 2.04 7.904 2.203 10.285 3.31-.456.194-2.546-.378-3.14-.26 6.998 2.184 3.703.594 6.144.899a8.711 8.711 0 0 1 1.87 1.374c.78.735 1.18 1.37 2.102 1.71.109-.11.273-.2 1.534.152.905.207 1.773.399 1.544.15-5.426-1.249-1.714-1.623-4.07-2.588 3.8.828 5.244.99 7.359 2.02-1.37-.264-4.173 0-1.701.498.607-.176 7.752 1.057 8.99 1.887-2.25.281-6.717.34-2.051 2.012 3.747-.017 2.225-.992 7.877.494.784.213 1.708.476 2.805.799 1.022-.255-.827-.749-2.706-1.244-1.347-.342-2.708-.69-3.054-.96.85-.222 3.17.11 3.353-.366a.19.19 0 0 0 .01-.048c.005-.058-.017-.125-.07-.205-2.337-.537-5.189-1.132-4.37-1.429 1.802.385 3.262.839 4.517 1.295 2.934 1.098 4.725 2.223 7.124 2.484-1.667-.724-4.175-1.515-4.222-2.103 5.007.925 4.805 1.422 4.27 1.888 7.393 1.63 2.714.021 1.73-.729 5.671.985 2.684 1.24 7.295 2.15 2.592.47.142-1.04 3.218-.374 1.167.682 3.67 1.487 4.19 2.118-3.262-.628-4.572-1.72-4.49-.833 2.045 1.231 6.369.61 7.354 1.965-3.185-.153-5.492-1.27-3.218.368-3.419-.882-5.7-1.309-7.451-1.528.474-.03 3.885.04.199-.858-2.924.02-5.543.162-12.185-1.247.765 1.19-4.604.32-2.027 2.018 5.473 1.499 2.546-.267 7.558 1.068-.284.2-2.753-.127-.147.643 6.482 1.207 14.444 3.275 20.68 4.878.318-.074.19-.328 1.075-.178.137.023.298.056.49.102.356-.115.096-.287-.399-.48-1.249-.477-3.943-1.085-2.287-1.296.909.31 1.708.56 2.416.76 3.482.991 4.72.766 6.197.683 1.476-.082 3.228-.051 7.385 1.915-1.479-.262-7.889-1.635-4.519-.314.786-.17 1.456.547 2.705 1.093 1.323-.06 3.73.335 8.384 2.47 1.515 1.248-3.34-.278-.436 1.012 1.114.268 2.904.825 4.167 1.144 1.407.355 2.195.347.493-.932-.01-.005-.019-.01-.027-.016-3.968-2.23-3.31-1.194-5.452-1.973-.605-.748-3.135-1.905-2.237-2.305 3.127 1.25 5.154 2.06 5.64 1.855-2.624-1.708-3.899-1.64-8.284-3.28-2-.553-.48.696-3.091-.102-1.59-1.248-6.815-2.348-10.508-2.982-.346-.06-.679-.117-.993-.173.136-.277-.576-.635-1.327-.996.84.189 1.664.368 2.471.54 0 0 18.346 3.48 25.737 8.716 10.83 7.673 16.17 16.936 15.326 34.975-3.402 21.763-18.07 33.734-62.557 35.07-2.283.113-29.519 0-29.519 0v9.843h-9.716v4.388h4.016v7.676h-7.742v3.066h-5.76v3.128h-9.04v4.673h29.207c18.338.309 63.372 1.49 86.718-9.399 20.551-8.569 32.187-19.882 39.248-33.874 5.84-11.573 6.9-19.852 7.353-30.204.413-9.433-.486-19.352-4.272-28.001-3.564-8.144-7.719-14.877-16.639-20.843-6.086-5.057-16.382-10.132-18.506-10.908l-7.542 4.229M94.225 52.517c-5.463.658-7.568 1.193-12.343 2.197.534.19-.013.453-.782.754-.99.383-2.302.807-2.485 1.107a35.18 35.18 0 0 1 2.523-.96c4.225-1.447 9.377-1.93 13.087-3.098zm-22.398 34.08c.57.393.81.683.554.832.627.42 1.313.716 1.896.891 1.453.462 2.304.337 1.13-.27.154.287-.276.14-.906-.178-1.118-.586-2.835-1.847-2.674-1.276zm12.426-26.812c-.358.254-1.083.53-1.8.828-1.321.548-2.581 1.08-2.169 1.451.796-.22 1.604-.524 2.329-.846 1.773-.798 2.95-1.627 1.64-1.433zm-71.059 6.514a63.677 63.677 0 0 0-.771 9.766c-.3 6.942 1.407 14.916 3.724 20.132-2.519-7.238-3.44-14.266-3.315-20.132-.083-3.564.1-6.891.362-9.766zm203.048 133.117c.455-5.25-.067-7.634-.272-7.477-.206.157-.143 2.785.272 7.477zm-17.9-46.58c.67.683 1.288 1.331 1.858 1.938 2.347 2.505 3.86 4.312 4.838 5.067-1.454-2.083-3.1-4.105-4.428-5.437-1.19-1.19-2.082-1.84-2.268-1.569zM65.557 8.707c-1.565.359-1.883.255-3.13.535.592.188 2.714-.126 5.132-.5 2.636-.409 5.633-.904 7.352-1.2-5.857.548-3.723-.207-1.807-1.254-3.54.555-4.72 1.09-5.73 1.59-.543.267-1.039.532-1.817.828zm2.686-2.61c-1.239 1.209 3.88.11 9.482-.783-.942-.4-1.503-.987-6.395-.046-.337.237-1.275.494-3.087.83zm67.686 161.637c-2.774-.717-2.7-1.05-4.104-1.555-1.257-.054-2.023.105-1.684.714 3.522.904 4.482.807 5.788.841zM97.945 1.007c3.107.032 6.552.09 9.029-.192.972-.173 3.695-.54.219-.392-5.43.083-7.186-.075-9.248.584zM11.831 38.588c-.77 1.194-1.724 2.693-2.406 3.928-.572 1.075-.95 1.942-.937 2.22.387-.671.793-1.365 1.21-2.065 2.487-4.012 5.401-8.068 6.076-9.79-.689.822-1.309 1.59-1.26 1.221-1.239 1.653-2.934 4.001-2.866 4.365.532-.806 1.238-1.543.183.121zm97.717 123.209c3.596 1.13 7.286 1.199 7.382 1.726.235.482-1.769.083-1.679.509 9.433 2.582 2.377-1.306 9.011 1.453-.308-.67 5.762 1.2 4.628.2-2.806-.622-3.199-1.022-5.852-1.623-4.832-.559-10.44-2.426-17.728-4.151 2.552.88 2.149 2.64 4.042 2.743zM28.961 134.79c-1.793-1.453-2.288-2.288-2.224-2.758-4.276-3.09-5.845-3.759-8.598-6.005 4.231 4.478 8.356 7.476 10.822 8.763zm148.778-3.735c2.983 1.326 5.807 2.86 8.474 4.496 7.483 4.477 13.315 10.125 18.663 14.993l.432.397a35.015 35.015 0 0 0-.359-.464c-1.79-2.267-4.572-5.217-7.883-7.984-3.31-2.767-7.143-5.334-10.674-7.259-3.688-2.054-6.933-3.529-8.653-4.18zM33.807 16.888c3.366-2.06 4.906-3.089 4.908-3.422.001-.333-1.537.065-4.12 1.415-.106.964-3.736 2.898-.788 2.007zm22.238 49.646c-.208 1.939.793-.152 1.737-1.498.195-.28.394-.53.561-.7-.418-.203-.858-.477-1.429.326-.27.38-.574.967-.87 1.872zm50.759 39.445c3.454 1.308 7.519 2.267 11.414 3.087 4.026.871 7.862 1.637 10.68 2.502-1.104-.904 2.232-.05 1.734-.715-4.296-1.086-8.454-1.882-12.237-2.562-4.576-.793-8.582-1.466-11.591-2.312zm-21.665-4.35c-.568-1.094 7.142.461 3.256-1.35-1.969-.098-6.298-.141-3.256 1.35zm-4.99-48.72c-.042.19.096.294.366.336.953.166 3.648-.422 5.94-.644.073-.76-4.066.095-6.035.284-.095.01-.186.018-.271.023zm50.784 56.659c.527-.574 12.196 3.347 10.596 1.914-3.777-.631-13.983-3.634-10.596-1.914zM97.25 100.73a642.678 642.678 0 0 0-4.52-.446c-.534-.194-.894-.35-1.11-.47-.368-.218-.275-.326.091-.36 1.058-.075 4.229.394 5.697.636 6.637 2.218 9.98 1.922 16.21 3.18-5.43-.166-14.15-1.698-19.583-1.978-4.723-1.661 4.499.458 3.215-.562z" style="line-height:125%;-inkscape-font-specification:Sans" font-size="40" font-weight="400" letter-spacing="0" word-spacing="0" fill="#272a2b" font-family="Arial"/><path d="M14.441 213.548H0v14.44h14.441v-14.44zM79.479 207.828H65.883v13.596h13.596v-13.596zM18.853 254.095H11.17v7.684h7.684v-7.684zM35.237 222.753h-7v7h7v-7zM51.496 206.73h-4.173v4.174h4.173v-4.173zM42.73 191.073H32.15v10.58h10.58v-10.58zM200.935 32.507c-.014-.148-.036-.288-.242-.244.571 1.483-2.147 1.062-2.68 1.217.296-.05.151-.271 0-.487.356-.134 1.26.286 1.218-.244-.51.078-2.109.037-1.217-.486 1.526.76 2.747-.83 2.92.244m-27.263-.73c3.037 0 .209.598-1.703.244-.416-.078.026-.249 0-.244.686-.104 1.273 0 1.703 0M209.7 24.96c-.33-.11-1.365-.143-1.946 0 .009-.78 2.5-.482 1.946 0M36.625 48.817c1.204.338 2.849.236 4.383.243-.866-.538-3.7-1.801-4.383-.243m83.739-1.462c-1.182-.329-2.498.034-4.14-.242.673.769 3.386 1.047 4.14.242m6.572.243c1.103.52 3.174.07 4.381.487v-.73c-.999-.307-2.786-.05-4.381.243m-27.994-.485c-.337-.556-1.694-.092-2.435-.244.339.553 1.696.09 2.435.244m-5.598-.975c-.339-.555-1.696-.09-2.435-.243.337.555 1.696.09 2.435.243m71.807 0c.819.562 2.675.085 3.895.242 1.327-.57-2.463.129-2.677-.485-.686-.201-.63.342-1.218.243m-9.006-.243c-.104-.543-1.199-.099-1.703-.243.199.51 1.284.667 1.703.243m27.262.243c.761-.851-2.24-.485-2.677-.243-3.17.353 2.57.14 2.677.243m-11.44 0c.783.368 3.469.553 3.896-.243-.929-.625-2.133.283-3.895.243m-9.492-1.216c.205.525 1.253.205 1.46.73-1.42.666-3.62-.095-4.868.243 2.035.547 3.532.168 5.841.485-.293-.267-1.039-1.452.242-1.215.465-.48-1.952-.144-2.675-.243m-33.106-2.923c-.853.792 1.532.4 2.19.488-.113-1.134-2.012.057-2.19-.488m-64.993-.24c-5.226-.198-9.578.484-14.361.728 2.747.813 6.04-.05 9.006 0 1.803.03 4.022 1.278 5.355-.729m33.348 0c-.637-.071-1.047.087-.972.729.635.068 1.045-.09.972-.729m-17.04 0c-2.496-.017-7.958-.301-9.25.972 3.575-.487 5.63-.03 9.25-.972m1.704 0c1.244.958 2.933-.025 4.868.24-.597 1.338 2.307.221 3.652 0-2.294-.417-5.608-.748-8.52-.24m10.467 0c-.068.391.232.418.242.729-.753-.319-.692.066-1.703 0 1.668.512 3.418.166 4.626-.243-.927-.85-1.856-.35-3.165-.486m54.04.729c2.548 1.358 4.875-.218 8.276.972-1.39.964-4.422.285-6.573.487 2.192 1.115 8.655-.226 10.711.976 7.868-.615 18.053.3 26.775-.976-1.058-.157-2.75.317-3.406-.242-.15-.961 1.336-.286 1.947-.488.03-.919-1.424-.36-1.46-1.217.075-.33.61-.204.973-.24-3.611-.153-6.478 1.14-10.71.971.544-1.321 2.93-.801 4.381-1.217-7.552-1.112-18.778.442-27.263-.244-.027.46-.805.17-.73.73-.761.376-1.799.474-2.921.488m-83.248-3.164c1.63.61 2.631-.191 4.38 0-.527-.81-3.844-.747-4.38 0m4.867 0c6.306-.174 16.568.332 24.097 0 1.47-.064 4.214.129 5.357-.245-1.12.368-2.782-.496-4.14-.485-7.228.059-18.302-.317-25.314.73m43.572-.975c-1.708.694-2.755-.52-4.868.245.233-.085 3.49.944 4.868-.245m62.56-1.216c-.805-.63-2.561-.134-3.167.243-.087-.414.191-.458.488-.487-2.384-.777-6.372.896-9.006-.486-.177 1.149-1.1.515-2.19 1.458 1.665-.123 2.65.433 4.38.245-1.543.567-4.135.083-6.084.243.447.528 1.434.514 2.432.487-2.853.587-7.125-.562-10.223.243 10.79.852 17.886 1.28 28.725.973-.875-.91-2.662-.907-4.14-1.216-.492.75 1.86.73 2.922.73-1.544.567-4.137.084-6.085.246.516-.62 1.685-.586 2.676-.733-.74-.393-1.18-1.09-2.434-.973.04-.285.445-.205.73-.245-1.107-.449-3.12.284-4.868 0 2.03-.408 4.302-.435 5.844-.728m4.38-.486c-.948-.614-2.854-.103-3.652.242.32.574 1.893-.107 1.948.731 1.609.173.53-.897 1.703-.973m-.242.486c1.186.309 3.89.868 4.623-.244-1.141-.794-1.44.54-2.677 0 .922-1.25-.652.77-1.946.244m-11.196-.486c-.056-.351-.727-.087-.731-.488-.536.526-3.468-.072-3.165.488zm-101.022-.73c-1.562-.466-3.292-.766-5.11-.977.04.287.444.206.73.245-.406.786-1.322.28-1.947 0-.827.067-1.974-.188-2.435.244h-2.191c-.774.335.859.24 1.217.244 3.95-.124 5.817.34 9.736.244m1.462-1.218c-.207-.045-.23.093-.242.24-.272-.875-3.787.84-4.383.246.578.58 3.77.028 4.625-.486m21.177-.731c-.32.815-2.736-.463-2.677.731 1.69-.205 3.33-.356 5.356-.731-.47-.432-2.799-.274-2.923-.243-.898.156-2.424-.317-2.921.243zm5.599 0v.731c1.876-.435 3.851-.668 4.868 0-.919-1.596-3.627-.943-4.868-.731m4.138-.974c-.107-.297-.312-.5-.731-.486-2.362.335-2.918.309 0 .73.04-.285.444-.204.731-.244m-17.038 0c1.412-.769-.23-.295-1.219-.244 2.741 1.146 7.02.182 9.738.244-.587-.376-1.04-.511.243-.486-1.596-.924-4.162.927-6.572.242 1.691-.384 3.187-.51-.486-.486-.418.394-.888.738-1.704.73m81.788-4.383c.006.238.298.191.487.246-1.017.498-2.659-1.035-3.407.486 1.867-.441 4.968.897 5.355-.486 1.19.46 1.203.021 2.92.486-.406-.483.021-.308 0-.974-1.602-.194-3.305-.118-5.355.242m23.124-.242c.364 1.073 1.434-.005 2.434.242-.208-.52-1.929-.47-2.434-.242m-4.137-2.92c-.623.393-1.937-.043-2.921.486 1.1.11 2.466.63 2.921-.486m-8.032-.245c-2.105-1.268-6.94-.191-9.252 0 2.758.413 5.81.214 9.252 0m-2.923-2.678c-.103-.543-1.2-.097-1.704-.242.056.35.729.086.73.486-3.839.522-9.504-.17-14.36.488 4.531.067 12.156.724 16.795 0-.105-.46-3.101-.086-1.461-.732m-.974-.972c-1.15-.096-1.674.435-2.92.244.128 1.211 2.313.236 2.92-.244M59.752 18.876c.73-.238 6.004.716 7.06-.732-3.302-.206-5.015-.034-7.548.244.15.217.295.436 0 .488-.043.206.096.228.244.242.435.07.498-.23.244-.242m9.007-.488c.65.447 2.238.064 3.164-.486-1.106.51-2.378-.485-3.164.486m-2.193-1.216c-.105-.3-.31-.502-.73-.488-2.278.247-2.702.603.73.488m110.757 0c.062.432 2.129.314 3.165 0-.344-1.101-2.504-.17-3.165 0m-116.355.486c1.26.68 1.922-1.318 3.652-.974-.524-.852-2.927.423-3.652.974m128.041-1.705c-.798.015-.933.693-1.949.488.034.858 1.092.694 1.704.973-1.005-.896.348-.307.245-1.461m-27.263 0c-1.238.912-3.648.295-5.843.245 1.513-1.138-1.17-1.012-2.435-.73.208.603 1.694-.073 1.947.485-.591.463-1.944.168-2.677.488-.18.829.896.402.974.973 6.52.148 11.107 1.112 18.5 0-.17-.197-.38-.666 0-.73-.66-.855-3.712-.428-4.382-.486-.018-1.236 1.91-.526 2.676-.973 1.786-.445-2.606-.227-3.405-.246a26.726 26.726 0 0 1-3.166-.24c-.52-.117-.464.346-.486.73h-5.355c-.788.279.651.276.974.242.68.292 1.679.27 2.678.242m16.55-1.46c-.984-.73-2.26.328-3.65 0-1.021.374 3.074.374 3.65 0m-84.952-.242c-.416.557-1.86.088-2.678.242 1.133.806 4.687-.155 6.329.245.992-2.357-7.264-.21-3.651-.487m11.685-.976c.057.43.42.556.974.488-.132.452-.881.22-1.218.244-2.083.147-.646.255 1.46.244.039-.286.444-.205.731-.244-.61-.284-.938-.85-1.947-.732m-31.89 1.463c.343-.39.838-.624 1.461-.731-37.185.538-32.677.55 3.164 1.461-1.29.448-2.345.006-4.138.243.15.219.296.434 0 .487 1.721 1.067 3.58.486 6.085.729-.742.636-3.022-.263-2.92 1.217 3.548-.018 5.69.084 9.007.244.744-.376-1.056-.214-1.462-.244-1.797-.135-2.913-.576-3.893-.972.506-.306 1.026-.596 1.461-.974-.183-.55-1.367-.096-1.947-.245.206-.766 2.427.481 1.947-.974h7.057c-.129-.192-.253-.394-.242-.728 1.179.042 1.95-.323 2.921-.488-1.992-.228-4.297.348-6.816 0 .12-.773 2.193.41 1.949-.73-2.384-.046-5.175.02-5.844.974 2.26.792 3.578-.141 5.844.486-2.63.657-4.794-.039-7.304 0 .207-.362.612-.522 1.216-.486-2.494-.707-5.64.036-7.546.731m56.717-2.922c3.368.731 5.325-.047 8.763 0-2.362-.344-5.614-.322-8.763 0m-70.834-.974c-.595-.496-1.513.011-1.948 0 .758.54 1.2-.02 1.948 0m5.112 0c-.818-.564-2.674-.086-3.895-.242.816.562 2.673.082 3.895.242m10.222 0c-1.463-.565-3.974-.082-5.84-.242 1.46.565 3.972.082 5.84.242m38.217-.242c.45-.546-1.295.332-1.945.242.368.362 1.066.393 1.703.488-.021-.347-.042-.692.242-.73m-18.012-.487c-.818-.563-2.674-.087-3.895-.246.817.565 2.673.088 3.895.246m-11.928 1.46c-.012-.417.18-.63.487-.731-.46-.615-.852.224-1.46-.242-.28.764.382.59.485.973-.418.483-2.414.483-1.946-.731-.32.248-.898.239-1.216.488.464-.903-.154-.608-.73-.976-2.101.642-3.398 1.499-6.086 1.948-.724-.17-.987-.8-1.462-1.216-.486.28-3.677.685-1.46.73-4.339 1.183-6.908-.564-10.223 0 .048.327 1.01.453 0 .486.104.546 1.199.1 1.703.245-.074-.33-.61-.202-.973-.245.562-.7 1.775-.005 1.947.487 1.622-.447 2.715.452 4.137.486 1.555.04 2.186-.821 3.41-.973 3.387-.416 7.642.53 10.71.245.274.22-.017.544.487.974 1.357-1.24 4.294-.9 6.572-1.22.174-.66-1.15.175-.975-.485h.488c-1.067-.794-2.976.327-3.895-.243m11.685-.487c-.314.681-.504-.768-1.22-.486.667 2.27-3.242-.3-4.38.242.061.264.485.166.487.488-.415.077-2.45.71-2.432-.73H85.31c1.49 1.686 3.878 1.315 6.574 1.458-.076.33-.609.202-.975.244-.41.63 1.33-.109 1.947 0-.783-1.389 4.238.58 5.355-.729-.148-.228-.565-.899.245-.731.05-.416-.416-.63 0-.729-.284-.65-1.293-.023-.975.729-.179-.174-1.19-.607-.974.244-.226-.179-.366-.441-.486-.732-.801.011-1.211.412-2.191.246.109.215.214.434.488.486m46.493-.973c-1.14-.565-3.324-.085-4.869-.246 1.14.566 3.325.087 4.869.246m-35.296.973c-.292-.32-.096-.384 0-.732 1.377-.239 1.457.816 2.92.488-.477-.457-.14-1.173.731-.975-1.798-.414-4.292.576-6.572.487.138.229.677.37.244.488.054.35.725.085.73.488.05-.788.597.254 1.947-.244m27.02-1.462c-.01-.318-2.268-.422-2.68.243-1.333-.418-3.19.248-5.11 0-1.319.324 1.379.248 1.947.246.38.086-.213.426.244.487 1.958-.235 3.746-.637 5.599-.976m-5.843-.73c1.746.965 2.674.098 5.111.246-.281-.536-3.623-.106-5.11-.246m9.005.488c1.72-.16 2.78.059 4.869 0-.836-.514-4.133-.99-4.869 0m8.52-.242c1.884.815 2.563.082 4.625 0-.798-.592-3.688.034-4.625 0M84.58 8.164c1.606.833 5.207-.483 1.704-.242-.63.042-1.24.44-1.704.242m29.697-1.217c.848.752 1.994-.266 3.165 0 .23-.525-2.516-.177-3.165 0m-56.96 40.896c.433-.18.035-.443 0-.73 2.542-.014 5.945.735 8.763-.488 1.38 1.139 5.212.137 7.79.488-1.018-.544-.063-.912.974-.733-3.943-.746-8.559.236-11.196-.242-.883.368-.579 1.02-2.435.731-.098-.584 1.107.135.73-.731-7.739.223-17.465-.253-25.318 0-.413-.089-.458.19-.484.487 6.128 3.122 14.7-.998 21.176 1.218M166.369 11.33c.937-1.971 4.89-.552 6.086-1.706-.557.241-1.157.222-1.949-.242.384-.023.845.033.733-.488-4.092.952-9.46-.653-12.415.488.286.037.691-.042.73.242-1.054-.25-2.727.364-4.139 0 .299-.026.578-.073.488-.484-.505.143-1.6-.302-1.704.242.19.054.48.006.487.242-2.436.836-7.943-.66-10.224.976 1.9.698 3.924-.93 5.599.73-1.651.214-3.664.07-5.113.486.957.532 2.763-.486 3.651.486-1.713.803-4.855.177-6.815.731 4.09.034 9.406 1.95 12.902.242-1.347-.195-2.92-.163-4.14-.486H148.6c-2.086-.624 5.2.266 5.113-.731 2.235.722 5.307.49 8.764.49 1.682 0 6.558-.041 3.407.241-.795.423-2.198.238-2.678.974-.55-.394-3.815-1.295-2.433 0-.662.15-1.932-.31-2.191.244.975-.05 1.087.062.487.486 1.15.12 4.172.575 4.137 0-.009-.146-3.337.314-1.216-.242 1.42-.375 1.782-.16 3.65 0 .384-.187.364-.774.974-.73 4.032-.334 7.07-.177 10.71 0 .096-.378.293-.037 0 .242-.979.157-2.588-.315-3.164.244 1.04-.141 4.527.835 4.381-1.218-1.988.25-3.056-.237-.486-.242-.014-.312-.314-.34-.244-.731 3.25.094 6.35-.392 9.25.242-.328.484-1.699-.076-1.704.731 1.369-.169 2.137.073 3.164.244-.286.039-.69-.04-.73.242 2.171-.059 3.547.674 5.843.488.538.35-.308.595.243.73 2.71-.071 2-.568 3.408-.242-.23-.055-.31.422 0 .487.512.105 2.213-.295 3.409.487-1.971.152-4.195-.477-5.6.243 1.924-.205.277.724 1.46.73-.521.29-1.361.261-1.703.729-.214-.782.63-.505.73-.974-1.24-.183-1.932.18-1.947 1.219 7.443.245 11.113.921 16.066 1.216-1.016 1.421-5.316-.446-6.33.974.857-.202 2.755-.204 3.408.244-1.4-.505-3.233.4-3.233.4s-2.336-.697-2.365.33c1.053 1.236 4.121-.594 4.868 1.217-.764-.713-2.432-.26-3.407-.488-.096.42.362.626 0 .732-2.356.283-3.833-.04-6.33.244 2.712-.092-1.31.789-2.434.728-.059 0-.638-.714-.731-.728-.933-.15-1.684 1.289-2.191.484.383-.023.844.033.731-.484-.839.568-1.565-.2-2.435.728 5.721.705 11.208.145 15.578.974-.984.377-4.022-.235-5.597.731 1.614.536 3.41-.417 3.895.974-4.196.87-10.326-.501-14.117.244 1.674.036 2.782.727 3.65.972-2.36.211-4.08-.383-5.599.488.405.03 2.205-.134 1.46.242-.353.134-1.258-.283-1.215.244 1.572.047 4.3-1.404 3.892 0 1.056-.082 2.552.278 2.923-.486-.405-.028-2.205.133-1.461-.244 3.042-.12 8.642.469 11.441.73-4.616.332-8.629.385-13.633.972 2.703.188 4.719-.31 7.304-.242.737.337-.062.691.73.974-.054-.305-.38-.497.243-.486.986-.337.77.528 1.461.486h1.216c.58-.2 1.124.344.244.243-5.36.002-8.366-.124-12.415.243.88-.014 1.949-.075.975.487.635.076 2.221-.268 1.46.488-3.527.233-10.936 1.07-13.875-.488.607.171 1 .241 1.46-.243-.873-1.26-3.344.47-4.623-.487 1.08-.397 3.16-1.169 4.38-.243.943-1.282 2.51-1.48 3.652-1.46 0 .975-1.63.321-1.95.974.65 0 1.392-.092 1.706.243.101-1.929 3.257-.8 4.381-1.705-1.248-.264-2.81.421-3.409 0 .229-.26.9-.076.732-.73-2.06-.489-6.327.084-9.008-.487.367-.04.9.088.976-.243-4.347-.42-9.901-.009-13.39.243.384.024.846-.033.732.487-2.307-.402-5.103-.244-7.304-.244.948.92 3.644.092 4.87.732-.288.037-.69-.042-.73.242 2.666-.576 4.318.312 7.058.244-.274-.051-.38-.27-.486-.486 2.891 1.084 6.04.022 8.518 1.216-3.087.383-3.594-.253-6.083.488 1.433-.162.857.276 1.458.73-3.266.725-8.186-.901-9.736.486.213-.19.769.236.732.243-3.043.622-4.919.025-8.034.732 1.458.205 3.542.522 4.137.244-.321 1.38-3.814-.409-4.137.972 3.516-.168 6.763-.135 9.98.244 1.127.132 2.317.863 3.409.973-.012 0-.193-.5-.244-.487 2.155-.6 6.216.303 8.762.731-.596-.602 2.423.198 1.947.243-1.616.259-2.725-.005-4.38.487 2.835.014 4.623.18 6.816 0-3.294.825-8.708.78-11.93.244.423-.472 1.996.207 1.948-.731-2.874-.247-4.581-.24-7.058.245 1.264.49 1.908.126 2.92.727-1.838.19-3.976.084-5.598.489 9.227.325 15.673.719 24.829-.49-1.72.05-4.181-.013-4.868-.24.153-.415.735-.402.974-.731-.501-.148-1.693.39-1.461-.487 1.132-.688 3.388.07 4.623-.973-.43-.055-1.216.245-.974-.486 3.209-.117-.75-.148-.486-.487 5.153-.633 8.416.369 12.173.973 1 .161 2.4-.738 2.677.73-.298.026-.576.073-.487.487-3.332-.463-7.775-.254-9.979.488.741-.177.886.247 1.459.242 1.77-.828 4.365-.814 6.086-.487 1.528.009 0 .411-.73.245h-2.679c.055.306.38.497-.244.486-1.138.157-2.913-.318-3.65.24 2.222.277 7.371-.044 9.007 1.22-2.998.307-5.523-.483-7.06.73.636-.505-.336 1.269-.485.731.646.303 2.69.205 4.38.241 1.435.033 4.29.016 1.947.245-1.264.555-3.976-.657-5.11.488 1.164-.03 2.201.067 2.919.485-3.002.161-6.652-.323-9.25.245 4.159-.1 7.265.85 11.685.488.377.865-.826.146-.73.728 1.676-.202 3.451.17 4.139-.488-.8-.105-3.317.247-2.923-.24 2.393.005 3.398-.101 5.599 0 .312 1.23 2.693.39 3.409 1.216-1.073.363-1.678-.252-2.434.242.364.042.898-.087.974.244-2.52-.845-8.796 2.15-10.711.245.068.064.577-.105.486-.245-1.51.436-3.84.057-4.869.973.596.704 1.904.693 2.434 1.46-1.047-.259-2.137.094-3.164.49 1.458-.006 3.633-.325 4.869.486-1.57.248-2.476-.098-3.41.973 1.04.622 2.76-.53 3.896.243.104-.547 1.292-.007 1.461-.486.657.56 2.348.085 3.408.243 1.062-.006.042.42-.486.243h-1.948c-13.491 1.222-24.796.32-38.945.731-.002.357-.68 1.22-.976.486.29-.12.552-.26.73-.486-3.269.256-5.7-.584-7.79.244 2.272.068 4.9-.443 5.843.485-.848.613-3.088-.167-3.408.975 2.053.014 4.55-.093 5.6.244 1.22.157 3.077-.32 3.893.243h-1.459c-12.607.306-25.536-.593-35.783-.731-3.119-.04-7.108.47-8.276.244-2.026-.393-4.257.806-5.113-.73-1.205 1.643-3.825.382-5.842 1.217.184-1.034 2.269-.166 2.677-.975-2.97.137-4.768-.988-6.815 0-.402 0-.135-.674-.487-.73-1.143.634-3.08-.394-4.138-.486-.402-.036-1.269.482-1.461.486-4.193.109-9.394.087-15.336.243 1.803-1.316 4.634-.502 7.304-1.46-3.791.43-9.426-.987-11.684.975 2.02-.174 5.706.255 1.704.242-.002.402-.676.135-.732.488.19.054.48.006.488.242-.429-.14-1.429.295-1.46-.242.286-.039.691.04.73-.245-1.965.014-5.384 1.065-6.574.245.356-.134 1.258.284 1.22-.245-1.341-.185-5.016 1.321-4.382 0-.83.037-2.65-.187-1.46.487-7.04.11-15.659-.481-20.936 1.704.93-.256 2.687.373 3.895 0-1.375 2.033-5.715.354-7.546 1.46.285.039.69-.04.731.244h-1.949c-.61-1.094-1.676-1.732-1.947-3.164.22-.51 1.374-.087 1.46-.731-1.73-.923-2.148-2.023-3.894-3.162 1.454-.695-.13-2.91.975-3.897-.435-.134-1.012-.124-1.219-.488.506-1.146.666-3.093 1.461-4.135-.79-.142-1.132.163-1.703.242-.977-.91-1.783-3.227-.486-4.381.192 1.724-.569 2.913.486 3.651.02-1.569 2.07.328 2.433-.974-.05-.326-1.01-.453 0-.487.455-.032.415 1.438 1.46.487-1.28-1.152-2.49-2.377-3.163-4.139.132-.84 1.034-.913 1.216-1.705-.325-.565-1.409-.374-1.946-.728.668-1.103-.54-1.274-.486-2.434.282-.447 1.29-.17.972-1.217-.742.175-.887-.25-1.46-.243.129-1.58-.284-1.452-.972-2.435 30.686-1.871 13.443 7.54 26.968-6.795 3.806 1.702 10.11-7.54 14.41-6.836.183.028-.06.524.489.486 3.078-.202 6.97-2.856 9.248-.731 4.546.26 8.756-.427 12.173 0-.883.174-2.018.091-2.678.487 1.833.073 4.342.507 4.867-.973-1.309-.09-2.724-.235-3.895-.244-3.79-.028-8.136 1.008-10.223 0 5.842-.165 13.528-.572 19.96-.242 1.54-1.007 5.415-.163 8.765-.488 1.085-.106 6.196-1.373 4.625 0 6.807-.643 13.165.564 18.013-.732-.354-.13-1.26.286-1.217-.242 1.405-.571 4.687-.675 5.356 0-1.494-.03-2.91.013-3.897.488 4.36.242 9.482.542 12.902.244 1.894.719 8.99-.281 11.928.486-.15.338-.938.036-.975.486 1.034.425 2.74.182 4.14.244.525-.176 1.547.248.487.242h-.73c-4.816 1.8-9.197.213-14.85 1.22 8.852-.239 17.283.732 25.803-.73-.383-.026-.845.032-.731-.49h1.461c-.077-.328-.346-.464-.244-.972 2.766-.632 6.756-1.549 9.736-.486-.245 0-.304.427 0 .486 5.029-1.522 11.848.032 16.796.486-3.078.626-5.91.675-8.52.73.364.043.901-.086.974.245-2.463-.61-6.467-.043-9.492.242.724.1 3.14-.236 2.677.244-2.92.614-5.384.334-7.79 1.216.483.562-.06.272-.243.73.646.288 1.433-.464 1.461 0-3.963 1.682-7.78-.037-12.415.976M83.12 4.513c.395.49-2.124.137-2.921.243-.26.282-1.121.09-1.461-.243 1.31.2 2.567-.104 4.382 0m90.551 45.521c.741.15 2.097-.313 2.436.243-.741-.154-2.097.312-2.436-.243m-29.453 0h-2.191c.066-1.062 1.842-.217 2.191 0m-54.283-.731c-2.659-.351-5.815.998-7.79-.243 3.094.074 5.459-.411 7.79.243m8.276-.486c.822.153 2.261-.316 2.679.243-.82-.153-2.261.313-2.679-.243m3.409 0c.904.172 1.045-.418 1.947-.244.247.834-1.829.578-1.947.244m84.465 0c-2.477.433-8.646.383-11.926 0 3.074-.058 8.063.038 11.926 0m.245 0c1.659-.118 2.807-.04 3.895-.244-.654.69-3.182.725-3.895.244m2.434-.488c.526-.857 3.103-.949 4.139-.486-1.808.303-2.759.466-4.14.486m-28.479-.974c1.546.16 3.73-.321 4.867.243-1.542-.159-3.727.324-4.867-.243m38.217-2.433c-2.233-.212-4.976 1.076-5.356-.486 1.374.652 3.665-.474 5.356.486m.243-.976c-.9-.153-2.425.316-2.922-.242.545-.304 2.746-.587 2.922.242m-34.809-.972c1.061.157 2.75-.318 3.408.242-.663.297-3.119.614-3.408-.242m16.31.972c-1.731.031-4.477.892-5.114-.73.955-.585 3.162.077 4.14-.486-.332 1.04 1.04.887.974 1.216m9.494-1.46c.711.22.746.22 1.458 0 .35.76-1.809.76-1.458 0M166.857 42c.899.157 2.424-.314 2.92.245-.513-.147-2.669.531-2.92-.245m-14.363 0c-.24-.03-2.143.823-2.433-.24.739.15 2.096-.315 2.433.24m3.41 0c-1.167-.34-2.29.618-2.922 0 .373-.385 3.354-.385 2.921 0m9.006-2.434c.9.157 2.424-.315 2.921.246-.9-.156-2.424.313-2.92-.246m44.545.486c-2.698-.236-4.566.575-6.086-.24 2.498.296 4.994-.595 6.086.24m-44.304-1.216c.97.17 2.697-.424 2.922.488-.412-.488-4.097.001-2.922-.488m42.114-2.433c-.461-.109-1.468.33-1.217-.486h1.217zm-34.81-3.653c-.9-.154-2.425.317-2.92-.242.594-.07 2.927-.266 2.92.242m28.724.488c-.12-.763.84-.642.242-1.216 1.455.624 3.081-.42 4.383.242-1.564.927-2.389.275-4.625.974m6.328-.974c.875-.562 1.538.112 2.436-.242-.28 1.046-1.628.782-2.436.242m-36.757-.242c-4.423-.173-8.161.379-11.926-.244 2.925-.339 8.306-.42 11.926.244m25.316-1.95c1.893-1.007 1.754.959 0 0m5.113 0c-1.409.064-2.128.03-2.922.244-.12-.95 3.448-.473 2.922-.243m-27.994-.244c-.481-.5-.481-.23 0-.729-.188-.054-.481-.006-.486-.243h1.216c.042.608-.545.59-.73.972m5.355-1.46c-.76.523-2.26.104-2.921-.242.845-.207 1.716-.19 2.921.242m-5.599-1.46c.819-.155 2.87-.134 3.894.244-.885.621-2.808.547-3.894-.244m24.343 0c.744-.194 1.63-.418 2.433 0-.366.297-2.096.478-2.433 0m6.33-.244c-.819.269-1.676.295-2.193-.244.724.012 1.946-.725 2.193.244m7.058-.487c-1.63.032-3.699.6-6.086 0 1.482-.196 4.252-.625 6.086 0m-3.407-1.703c-1.635 1.095-3.524-.39 0 0m-2.679-9.25c-.11-.366 3.45-.434 4.139 0-2.047.178-1.87.04-4.139 0m-123.17.244c-1.122.13-2.596-.812-3.163.243-.039-1.52 2.496-.845 3.164-.243m-5.6-1.217c3.678-.384-.75 1.129-1.703.487.435.049.873-.4 1.704-.487m-9.494.487c2.224-.292 4.526-1.605 4.381-.245 1.072.18 1.99-.747 2.192.486-4.341.17-8.522.496-12.658.49 1.336-1.723 3.575-.401 6.085-.73m105.644-2.192c-1.165.03-2.202-.071-2.922-.49.494.02 2.617-.422 2.922.49m-6.085-1.217c-.7.05-1.236-.064-1.46-.488.502.147 1.69-.393 1.46.488m44.546-.73c-.741-.154-2.097.312-2.434-.246.766.281.59-.38.972-.487-.1.692 2.12.292 1.462.733m-17.77-2.192c.98.156 2.589-.317 3.163.244-.978-.157-2.587.315-3.163-.244m-.242.244c-1.221.34-3.277-.255-4.627.488.679.424 2.087.122.73.727 2.646-.741 6.732-.546 9.251.246-3.994-.627-7.128 1.47-10.466-.246-.473.194-1.476 1.1-1.949.487 1.667-.413.114-1.242 1.216-2.19 2.1.013 4.352-.133 5.845.488M59.507 7.433c3.219-.303 2.722.73 0 0m13.632.244c-1.322-.264-2.513.772-3.165-.244 1.008-.27 3.18-.253 3.165.244m92.5-.244c-.582-.148-1.766.307-1.947-.242.68-.29 1.481-.277 1.947.242m1.462-1.216c-.998-.06-2.347.238-2.678-.486 1.002-.289 2.538.19 2.678.486m-61.83-.974c-5.648.27 2.42-1.047 0 0m42.842-.24c-3.022.498-6.51.51-9.737 0 2.904-.2 6.898-.546 9.737 0m34.808-.247c.457-.053 1.614-.626 1.95 0-.651-.14-1.523.72-1.95 0m-107.59 0c-1.105-.275-3.34.582-3.652-.485 1.405.455 2.786-.36 3.653.485m38.701-.243c1.092.347 2.086-.657 2.68 0-1.004.156-2.044.746-2.68 0m87.876-.731c-1.23-.726-2.076-.375-2.274-.211l-2.351-.031c-1.704.45 2.447-.005 1.46.487.327.152 1.879-.546 3.165-.245M67.874 232.575H58.13v9.834h9.745v-9.834zM16.504 201.798H13.57v2.936h2.935v-2.936z" fill="#272a2b"/><path d="M35.532 248.76h2.5v2.5h-2.5v-2.5z" fill="#272b2b"/></svg>