<svg xmlns="http://www.w3.org/2000/svg" width="640" height="640"><path d="M320 512c-87.48 0-163.86-59.21-185.725-144.007-2.52-9.772 3.365-19.752 13.136-22.274 9.793-2.53 19.75 3.364 22.273 13.145 17.71 68.63 79.513 116.572 150.318 116.572 70.795 0 132.61-47.942 150.31-116.572 2.52-9.78 12.467-15.688 22.27-13.147 9.78 2.52 15.666 12.5 13.135 22.273C483.85 452.79 407.485 512 320 512m320-192C640 143.27 496.725 0 320 0 143.265 0 0 143.27 0 320s143.265 320 320 320c176.725 0 320-143.27 320-320"/></svg>
