<!-- Generator: Adobe Illustrator 16.0.0, SVG Export Plug-In . SVG Version: 6.00 Build 0)  -->
<svg xmlns:rdf="http://www.w3.org/1999/02/22-rdf-syntax-ns#" xmlns="http://www.w3.org/2000/svg" enable-background="new 0 0 100 100" xml:space="preserve" height="200" viewBox="0 0 200 200" width="200" version="1.1" y="0px" x="0px" xmlns:cc="http://creativecommons.org/ns#" xmlns:dc="http://purl.org/dc/elements/1.1/"><metadata><rdf:RDF><cc:Work rdf:about=""><dc:format>image/svg+xml</dc:format><dc:type rdf:resource="http://purl.org/dc/dcmitype/StillImage"/><dc:title/></cc:Work></rdf:RDF></metadata><path fill="#FFF" d="m100,0.01c-0.864,0-1.716-0.022-2.574,0-54.036,1.368-97.426,45.632-97.426,99.99,0,55.23,44.772,100,100,100,55.23,0,100-44.77,100-99.99,0-55.23-44.77-100-100-100zm0,179.99c-44.182,0-80-35.81-80-79.99,0-44.184,35.818-80,80-80,44.184,0,80,35.816,80,79.996s-35.816,79.994-80,79.994z"/><polygon points="76.824,50,35.647,20.59,35.857,79.41" fill="#FFF" transform="scale(2,2)"/></svg>
