<?xml version="1.0" encoding="utf-8"?>
<!DOCTYPE svg PUBLIC "-//W3C//DTD SVG 1.1//EN" "http://www.w3.org/Graphics/SVG/1.1/DTD/svg11.dtd">
<svg version="1.1" id="Layer_1" xmlns="http://www.w3.org/2000/svg" xmlns:xlink="http://www.w3.org/1999/xlink" x="0px" y="0px"
     width="100px" height="100px" viewBox="0 0 100 100" enable-background="new 0 0 100 100" xml:space="preserve">
<g>
    <path fill-rule="evenodd" clip-rule="evenodd" d="M84.727,91.67c-0.498-1.058,0.303-1.278,0.949-1.653
        c0.617-0.357,1.208-0.773,1.764-1.222c0.554-0.445,1.051-0.962,1.641-1.512c0.104,0.952,0.243,1.864,0.296,2.781
        c0.073,1.28,0.11,2.563,0.113,3.846c0.004,1.604-1,2.589-2.592,2.589c-25.349,0.001-50.698,0.001-76.047,0
        c-1.483,0-2.496-0.82-2.572-2.287c-0.321-6.199,1.178-11.771,5.873-16.14c2.468-2.298,5.483-3.53,8.733-4.273
        c4.427-1.013,8.852-2.039,13.266-3.108c0.962-0.233,1.881-0.656,2.804-1.03c0.537-0.218,0.843-0.64,0.984-1.23
        c0.525-2.198,0.701-4.438,0.841-6.683c0.012-0.188-0.147-0.427-0.292-0.58c-2.188-2.313-4.185-4.79-5.424-7.734
        c-1.062-2.523-1.845-5.164-2.769-7.746c-0.1-0.279-0.271-0.565-0.486-0.765c-0.971-0.904-1.532-2.027-1.926-3.273
        c-0.535-1.694-1.148-3.363-1.687-5.056c-0.322-1.011-0.664-2.031-0.825-3.073c-0.221-1.433,0.125-2.781,1.07-3.928
        c0.146-0.178,0.311-0.391,0.512-0.467c0.725-0.275,0.766-0.872,0.853-1.51c0.502-3.683,1.517-7.198,3.586-10.333
        c0.511-0.775,1.127-1.484,1.72-2.203c0.994-1.206,2.336-1.783,3.849-1.852c1.038-0.047,1.755-0.361,2.46-1.189
        c1.446-1.702,3.474-2.508,5.622-2.9c4.722-0.863,9.356-0.551,13.816,1.342c3.188,1.354,5.696,3.554,7.622,6.404
        c2.146,3.175,3.591,6.645,4.052,10.47c0.115,0.961,0.281,1.726,1.125,2.399c0.983,0.784,1.164,2.056,1.21,3.28
        c0.067,1.811-0.317,3.539-1.028,5.199c-0.117,0.275-0.228,0.556-0.37,0.818c-0.513,0.941-0.88,1.921-1.065,2.989
        c-0.239,1.388-0.871,2.578-2.074,3.405c-0.107,0.074-0.195,0.232-0.219,0.364c-1.087,6.03-4.273,10.908-8.385,15.274
        c-0.266,0.282-0.382,0.55-0.344,0.926c0.182,1.787,0.351,3.576,0.527,5.363c0.061,0.611,0.359,1.034,0.947,1.276
        c1.951,0.805,3.896,1.631,5.843,2.446c0.271,0.113,0.55,0.214,0.728,0.282c-0.73,1.43-1.446,2.83-2.191,4.29
        c-0.338-0.126-0.791-0.276-1.229-0.461c-1.717-0.724-3.43-1.455-5.14-2.191c-0.244-0.104-0.466-0.258-0.702-0.38
        c-1.57-0.812-2.482-2.1-2.858-3.819c-0.608-2.785-0.741-5.608-0.74-8.444c0-0.746,0.37-1.315,0.899-1.824
        c3.012-2.9,5.472-6.204,6.949-10.135c0.598-1.592,0.887-3.304,1.273-4.971c0.225-0.974,0.732-1.65,1.68-2.003
        c0.148-0.055,0.324-0.253,0.343-0.402c0.189-1.587,0.885-2.985,1.579-4.391c0.459-0.931,0.739-1.921,0.771-3.006
        c-0.141-0.042-0.278-0.088-0.418-0.122c-1.201-0.29-1.959-1.316-1.866-2.54c0.409-5.406-1.599-9.915-5.273-13.72
        c-2.09-2.164-4.826-3.145-7.768-3.538c-2.341-0.313-4.69-0.38-7.002,0.194c-0.749,0.187-1.476,0.511-2.167,0.862
        c-0.621,0.314-1.035,0.839-1.241,1.55c-0.324,1.114-1.337,1.721-2.546,1.667c-0.779-0.035-1.566-0.049-2.341,0.022
        c-0.323,0.03-0.7,0.234-0.924,0.477c-1.679,1.819-2.62,4.03-3.275,6.379c-0.543,1.949-0.886,3.94-0.908,5.96
        c-0.016,1.473-0.546,2.47-2.078,2.895c0.139,0.389,0.26,0.762,0.405,1.125c0.724,1.807,1.485,3.599,1.863,5.524
        c0.098,0.496,0.335,0.896,0.866,1.131c0.674,0.298,1.049,0.89,1.222,1.613c0.691,2.887,1.603,5.708,2.841,8.403
        c1.246,2.712,3.114,4.997,5.256,7.054c0.691,0.663,0.982,1.412,0.932,2.363c-0.144,2.747-0.385,5.477-0.921,8.183
        c-0.485,2.446-1.875,4.094-4.117,5.095c-2.096,0.935-4.313,1.465-6.533,1.982c-3.662,0.853-7.346,1.616-10.996,2.521
        c-5.354,1.327-8.519,4.811-9.663,10.166c-0.194,0.905-0.284,1.833-0.427,2.787C36.921,91.67,60.776,91.67,84.727,91.67z"/>
    <path fill-rule="evenodd" clip-rule="evenodd" d="M79.561,68.7c5.827,0.005,10.55,4.742,10.539,10.571
        c-0.012,5.825-4.755,10.544-10.583,10.528C73.696,89.784,68.984,85.035,69,79.201C69.017,73.406,73.754,68.696,79.561,68.7z
         M84.411,81.384c0.733,0,1.466,0,2.198,0c0.018,0,0.033,0.001,0.051,0c0.873-0.013,1.318-0.444,1.342-1.323
        c0.014-0.516,0.009-1.032,0.002-1.548c-0.014-0.959-0.453-1.392-1.425-1.395c-1.466-0.005-2.932-0.015-4.396,0.007
        c-0.395,0.006-0.514-0.107-0.508-0.505c0.022-1.499,0.015-2.998,0.007-4.497c-0.005-0.841-0.451-1.295-1.294-1.323
        c-0.516-0.018-1.032-0.01-1.549-0.004c-0.989,0.011-1.418,0.446-1.421,1.451c-0.005,1.466-0.013,2.932,0.006,4.397
        c0.005,0.371-0.104,0.486-0.479,0.481c-1.498-0.02-2.997-0.014-4.496-0.006c-0.873,0.005-1.325,0.452-1.349,1.321
        c-0.014,0.482-0.006,0.966-0.003,1.449c0.007,1.065,0.426,1.491,1.48,1.493c1.466,0.003,2.931,0.011,4.396-0.006
        c0.354-0.005,0.454,0.112,0.45,0.457c-0.016,1.499-0.011,2.998-0.005,4.496c0.004,0.902,0.447,1.349,1.351,1.37
        c0.466,0.01,0.933,0.004,1.399,0.002c1.101-0.005,1.511-0.411,1.513-1.508c0.003-1.433,0.011-2.865-0.006-4.297
        c-0.004-0.368,0.063-0.543,0.488-0.523C82.911,81.409,83.662,81.385,84.411,81.384z"/>
</g>
</svg>
